# .PCD v0.7 - Point Cloud Data file format
VERSION 0.7
FIELDS x y z
SIZE 4 4 4
TYPE F F F
COUNT 1 1 1
WIDTH 400
HEIGHT 1
VIEWPOINT 0 0 0 1 0 0 0
POINTS 400
DATA ascii
461.55435 -570.04968 6184.7324
521.45422 -570.78436 6188.1187
581.35406 -571.51904 6191.5054
641.25391 -572.25372 6194.8921
701.15375 -572.98834 6198.2783
462.36322 -510.06912 6183.4375
522.26306 -510.8038 6186.8242
582.1629 -511.53845 6190.2104
642.06274 -512.27313 6193.5972
701.96259 -513.00781 6196.9839
463.17209 -450.08856 6182.1426
523.0719 -450.82321 6185.5293
582.97174 -451.55789 6188.916
642.87158 -452.29257 6192.3022
702.77142 -453.02722 6195.689
463.98093 -390.10797 6180.8477
523.8808 -390.84265 6184.2344
583.78064 -391.57733 6187.6211
643.68048 -392.31198 6191.0073
703.58032 -393.04666 6194.394
464.78979 -330.12741 6179.5532
524.68964 -330.86209 6182.9395
584.58948 -331.59674 6186.3262
644.48932 -332.33142 6189.7129
704.38916 -333.06607 6193.0991
465.59866 -270.14685 6178.2583
525.49847 -270.8815 6181.6445
585.39832 -271.61618 6185.0312
645.29822 -272.35083 6188.418
705.19806 -273.08551 6191.8047
466.40753 -210.16626 6176.9634
526.30737 -210.90092 6180.3501
586.20721 -211.63559 6183.7363
646.10706 -212.37027 6187.123
706.0069 -213.10493 6190.5098
467.21637 -150.18568 6175.6685
527.11621 -150.92036 6179.0552
587.01605 -151.65503 6182.4419
646.91589 -152.38969 6185.8281
706.81573 -153.12436 6189.2148
502.10928 -282.80392 6179.5537
561.97797 -280.52222 6182.7993
621.84662 -278.24051 6186.0454
681.71533 -275.95883 6189.291
741.58398 -273.67712 6192.5366
499.90643 -222.86327 6178.0483
559.77515 -220.58157 6181.2939
619.6438 -218.29988 6184.54
679.51251 -216.01817 6187.7856
739.38116 -213.73648 6191.0312
497.70361 -162.92262 6176.543
557.57227 -160.64093 6179.7886
617.44098 -158.35922 6183.0347
677.30963 -156.07753 6186.2803
737.17834 -153.79582 6189.5259
495.50079 -102.98197 6175.0376
555.36945 -100.70027 6178.2837
615.23816 -98.418579 6181.5293
675.10681 -96.136879 6184.7749
734.97552 -93.855179 6188.0205
493.29794 -43.041325 6173.5322
553.16663 -40.759624 6176.7783
613.03534 -38.477928 6180.0239
672.90399 -36.196228 6183.2695
732.77271 -33.914528 6186.5151
491.09512 16.899326 6172.0269
550.96381 19.181025 6175.2729
610.83246 21.462723 6178.5186
670.70117 23.744421 6181.7642
730.56982 26.026119 6185.0098
488.8923 76.839973 6170.5215
548.76099 79.121674 6173.7676
608.62964 81.403374 6177.0132
668.49835 83.685074 6180.2588
728.367 85.966766 6183.5044
486.68945 136.78062 6169.0161
546.55817 139.06232 6172.2622
606.42682 141.34402 6175.5078
666.29553 143.62572 6178.7534
726.16418 145.90742 6181.999
336.64517 -68.403809 6166.4194
396.48651 -70.484848 6170.251
456.32785 -72.565887 6174.083
516.16919 -74.646919 6177.915
576.0105 -76.727959 6181.7471
338.82352 -8.4612617 6164.9546
398.66486 -10.542299 6168.7866
458.5062 -12.623337 6172.6182
518.34753 -14.704374 6176.4502
578.18884 -16.785412 6180.2822
341.00189 51.481285 6163.4897
400.8432 49.400249 6167.3218
460.68454 47.319214 6171.1533
520.52588 45.238174 6174.9854
580.36725 43.157139 6178.8174
343.18024 111.42384 6162.0249
403.02158 109.3428 6165.8569
462.86292 107.26176 6169.689
522.70422 105.18073 6173.5205
582.54559 103.09969 6177.3525
345.35858 171.36638 6160.5601
405.19992 169.28534 6164.3921
465.04126 167.20432 6168.2241
524.88257 165.12328 6172.0557
584.72394 163.04224 6175.8877
347.53696 231.30893 6159.0952
407.37827 229.22789 6162.9272
467.2196 227.14685 6166.7593
527.06097 225.06583 6170.5913
586.90228 222.98479 6174.4229
349.7153 291.2515 6157.6304
409.55664 289.17044 6161.4624
469.39798 287.08942 6165.2944
529.23932 285.00836 6169.1265
589.08063 282.92734 6172.958
351.89365 351.19403 6156.1655
411.73499 349.11301 6159.9976
471.57632 347.03195 6163.8296
531.41766 344.95093 6167.6616
591.25897 342.86987 6171.4937
215.30612 -234.99457 6161.9019
275.15237 -233.54492 6165.9424
334.99863 -232.09528 6169.9824
394.84488 -230.64563 6174.0229
454.69113 -229.19598 6178.0635
213.89124 -175.0139 6161.3389
273.73749 -173.56425 6165.3789
333.58374 -172.11461 6169.4194
393.42999 -170.66496 6173.46
453.27625 -169.21532 6177.5
212.47635 -115.03323 6160.7754
272.3226 -113.58359 6164.8159
332.16885 -112.13393 6168.8564
392.01511 -110.68429 6172.8965
451.86136 -109.23464 6176.937
211.06146 -55.052559 6160.2124
270.90771 -53.602913 6164.2529
330.75397 -52.153267 6168.293
390.60022 -50.703617 6172.3335
450.44647 -49.253971 6176.374
209.64658 4.9281111 6159.6494
269.49283 6.3777585 6163.6895
329.33908 7.8274055 6167.73
389.18533 9.2770529 6171.7705
449.03159 10.7267 6175.8105
208.2317 64.908783 6159.0859
268.07794 66.358429 6163.1265
327.92419 67.808075 6167.167
387.77045 69.257721 6171.207
447.6167 70.707375 6175.2476
206.81682 124.88946 6158.5229
266.66306 126.3391 6162.5635
326.50931 127.78875 6166.6035
386.35556 129.2384 6170.644
446.20181 130.68805 6174.6846
205.40193 184.87013 6157.96
265.24817 186.31978 6162
325.09442 187.76942 6166.0405
384.94067 189.21907 6170.0811
444.78693 190.66872 6174.1211
202.83945 -524.53326 6166.3691
262.68289 -526.45874 6170.249
322.52637 -528.38422 6174.1289
382.36981 -530.30969 6178.0088
442.21329 -532.23517 6181.8882
204.79893 -464.56708 6165.9053
264.6424 -466.49255 6169.7852
324.48587 -468.41803 6173.665
384.32932 -470.34348 6177.5449
444.17279 -472.26895 6181.4248
206.75842 -404.60086 6165.4414
266.6019 -406.52634 6169.3213
326.44534 -408.45181 6173.2012
386.28882 -410.37729 6177.0811
446.13226 -412.30276 6180.9609
208.71791 -344.63467 6164.978
268.56137 -346.56015 6168.8574
328.40485 -348.48563 6172.7373
388.24829 -350.4111 6176.6172
448.09177 -352.33655 6180.4971
210.67741 -284.66846 6164.5142
270.52087 -286.59393 6168.3936
330.36432 -288.51941 6172.2734
390.20779 -290.44489 6176.1533
450.05124 -292.37036 6180.0332
212.6369 -224.70227 6164.0503
272.48035 -226.62775 6167.9302
332.32382 -228.55321 6171.8096
392.16727 -230.47868 6175.6895
452.01074 -232.40416 6179.5693
214.59639 -164.73607 6163.5864
274.43985 -166.66154 6167.4663
334.28333 -168.58701 6171.3462
394.12677 -170.51248 6175.2256
453.97025 -172.43796 6179.1055
216.55588 -104.76987 6163.1226
276.39935 -106.69534 6167.0024
336.2428 -108.62081 6170.8823
396.08627 -110.54628 6174.7617
455.92972 -112.47176 6178.6416
62.899036 -561.21503 6158.0762
122.7739 -561.18829 6161.9492
182.64876 -561.16156 6165.8223
242.52362 -561.13477 6169.6953
302.39847 -561.10803 6173.5684
62.875813 -501.21506 6158.021
122.75067 -501.18832 6161.894
182.62553 -501.16156 6165.7671
242.5004 -501.13483 6169.6401
302.37524 -501.10809 6173.5132
62.852589 -441.21509 6157.9658
122.72745 -441.18832 6161.8389
182.60231 -441.16159 6165.7119
242.47717 -441.13486 6169.585
302.35202 -441.10812 6173.458
62.829365 -381.21512 6157.9106
122.70422 -381.18835 6161.7837
182.57909 -381.16162 6165.6567
242.45395 -381.13489 6169.5298
302.3288 -381.10815 6173.4028
62.806141 -321.21515 6157.8555
122.681 -321.18839 6161.7285
182.55586 -321.16165 6165.6016
242.43073 -321.13492 6169.4746
302.30557 -321.10818 6173.3477
62.782917 -261.21518 6157.8003
122.65778 -261.18842 6161.6733
182.53264 -261.16168 6165.5464
242.4075 -261.13495 6169.4194
302.28235 -261.10822 6173.2925
62.759693 -201.21519 6157.7451
122.63455 -201.18846 6161.6177
182.50941 -201.16171 6165.4907
242.38428 -201.13498 6169.3638
302.25912 -201.10823 6173.2368
62.736469 -141.21523 6157.6895
122.61133 -141.18849 6161.5625
182.48619 -141.16174 6165.4355
242.36105 -141.13501 6169.3086
302.2359 -141.10826 6173.1816
18.287001 -347.11981 6149.9951
78.108246 -348.60303 6154.3789
137.9295 -350.08621 6158.7627
197.75075 -351.5694 6163.1465
257.57199 -353.05258 6167.5303
19.775343 -287.13828 6149.979
79.596588 -288.62149 6154.3628
139.41785 -290.10468 6158.7466
199.23909 -291.58786 6163.1304
259.06033 -293.07104 6167.5146
21.263685 -227.15675 6149.9629
81.08493 -228.63994 6154.3467
140.90619 -230.12314 6158.7305
200.72743 -231.60634 6163.1147
260.54868 -233.08952 6167.4985
22.752026 -167.17522 6149.9468
82.573273 -168.6584 6154.3306
142.39453 -170.1416 6158.7148
202.21577 -171.6248 6163.0986
262.03702 -173.10799 6167.4824
24.240368 -107.19368 6149.9307
84.061615 -108.67687 6154.3149
143.88286 -110.16006 6158.6987
203.70412 -111.64326 6163.0825
263.52536 -113.12646 6167.4663
25.72871 -47.212143 6149.915
85.549957 -48.695339 6154.2988
145.3712 -50.178532 6158.6826
205.19246 -51.661724 6163.0664
265.0137 -53.14492 6167.4502
27.217051 12.769392 6149.8989
87.0383 11.286198 6154.2827
146.85954 9.8030043 6158.6665
206.6808 8.3198099 6163.0503
266.50204 6.8366165 6167.4346
28.705393 72.750931 6149.8828
88.526642 71.267731 6154.2666
148.34789 69.784538 6158.6504
208.16914 68.301346 6163.0347
267.99039 66.818153 6167.4185
-25.549992 -65.837425 6142.4902
34.224689 -66.809036 6147.5933
93.999374 -67.780647 6152.6968
153.77405 -68.752251 6157.7998
213.54874 -69.723862 6162.9033
-24.507586 -5.8516746 6141.7012
35.267097 -6.8232822 6146.8042
95.041779 -7.7948904 6151.9077
154.81647 -8.7664986 6157.0107
214.59114 -9.7381058 6162.1143
-23.465179 54.134079 6140.9121
36.309502 53.162472 6146.0151
96.084183 52.190865 6151.1187
155.85887 51.219257 6156.2217
215.63354 50.24765 6161.3252
-22.422773 114.11983 6140.123
37.35191 113.14822 6145.2261
97.126587 112.17662 6150.3296
156.90128 111.20501 6155.4326
216.67595 110.23341 6160.5361
-21.380367 174.10559 6139.334
38.394314 173.13399 6144.437
98.168999 172.16237 6149.5405
157.94368 171.19077 6154.6436
217.71835 170.21916 6159.7471
-20.337961 234.09134 6138.5449
39.436722 233.11974 6143.6479
99.211403 232.14813 6148.7515
158.98608 231.17651 6153.8545
218.76077 230.20491 6158.958
-19.295555 294.07709 6137.7559
40.479126 293.1055 6142.8589
100.25381 292.13388 6147.9624
160.02849 291.16226 6153.0654
219.80318 290.19067 6158.1689
-18.253149 354.06287 6136.9668
41.521534 353.09125 6142.0698
101.29621 352.11963 6147.1733
161.07089 351.14804 6152.2764
220.84558 350.17642 6157.3799
95.566147 111.43177 6165.4307
141.69229 73.277916 6169.5127
187.81845 35.124065 6173.5947
233.9446 -3.029789 6177.6763
280.07074 -41.183643 6181.7583
133.85837 157.61163 6164.3691
179.98451 119.45777 6168.4512
226.11067 81.303925 6172.5332
272.23682 43.15007 6176.6147
318.36298 4.9962158 6180.6968
172.15059 203.79149 6163.3076
218.27673 165.63763 6167.3896
264.40289 127.48378 6171.4717
310.52902 89.329926 6175.5532
356.65518 51.176075 6179.6353
210.44279 249.97134 6162.2461
256.56894 211.81749 6166.3281
302.6951 173.66364 6170.4102
348.82126 135.50978 6174.4917
394.94739 97.355934 6178.5737
248.73502 296.15118 6161.1846
294.86118 257.99734 6165.2666
340.9873 219.84349 6169.3486
387.11346 181.68964 6173.4302
433.23962 143.53578 6177.5122
287.02725 342.33105 6160.123
333.15338 304.17722 6164.2051
379.27954 266.02335 6168.2871
425.40567 227.86949 6172.3687
471.53183 189.71565 6176.4507
325.31946 388.51093 6159.0615
371.44562 350.35706 6163.1436
417.57175 312.20322 6167.2256
463.69791 274.04935 6171.3071
509.82404 235.89551 6175.3892
363.61166 434.69077 6158
409.73782 396.53693 6162.082
455.86398 358.38306 6166.1641
501.99011 320.22922 6170.2456
548.11627 282.07535 6174.3276
239.21336 -333.99442 6164.4746
299.04868 -331.94479 6168.4165
358.88397 -329.89517 6172.3579
418.71927 -327.84555 6176.2993
478.55457 -325.7959 6180.2407
237.19305 -274.03064 6163.9629
297.02835 -271.98102 6167.9043
356.86365 -269.93137 6171.8457
416.69897 -267.88174 6175.7876
476.53427 -265.83212 6179.729
235.17274 -214.06683 6163.4507
295.00806 -212.01721 6167.3926
354.84335 -209.96759 6171.334
414.67865 -207.91795 6175.2754
474.51395 -205.86833 6179.2168
233.15244 -154.10304 6162.939
292.98773 -152.05342 6166.8804
352.82306 -150.0038 6170.8218
412.65836 -147.95416 6174.7637
472.49365 -145.90454 6178.7051
231.13214 -94.139259 6162.4268
290.96744 -92.08963 6166.3687
350.80273 -90.040001 6170.3101
410.63803 -87.990372 6174.2515
470.47336 -85.94075 6178.1929
229.11183 -34.175465 6161.915
288.94714 -32.125839 6165.8564
348.78244 -30.07621 6169.7979
408.61774 -28.026583 6173.7397
468.45303 -25.976955 6177.6812
227.09152 25.788326 6161.4028
286.92682 27.837954 6165.3447
346.76215 29.887581 6169.2861
406.59744 31.937208 6173.2275
466.43274 33.986835 6177.1689
225.07123 85.752113 6160.8911
284.90652 87.801743 6164.8325
344.74182 89.851372 6168.7739
404.57712 91.901001 6172.7158
464.41245 93.95063 6176.6572
