# .PCD v0.7 - Point Cloud Data file format
VERSION 0.7
FIELDS x y z
SIZE 4 4 4
TYPE F F F
COUNT 1 1 1
WIDTH 433
HEIGHT 1
VIEWPOINT 0 0 0 1 0 0 0
POINTS 433
DATA ascii
0 0 0
-97.143967 -66.521149 1978.6842
-101.11262 -108.32339 1977.7773
-105.08127 -150.12563 1976.8705
-109.04992 -191.92787 1975.9636
-113.01857 -233.73012 1975.0568
-116.98722 -275.53235 1974.1498
-55.335373 -70.50029 1979.14
-59.304024 -112.30253 1978.2332
-63.272675 -154.10477 1977.3263
-67.241325 -195.90701 1976.4194
-71.209976 -237.70926 1975.5126
-75.178627 -279.51151 1974.6056
-13.526779 -74.479431 1979.5958
-17.49543 -116.28167 1978.689
-21.464081 -158.08391 1977.7821
-25.432732 -199.88615 1976.8752
-29.401382 -241.6884 1975.9684
-33.370033 -283.49063 1975.0614
28.281816 -78.458572 1980.0516
24.313166 -120.26082 1979.1448
20.344515 -162.06305 1978.2379
16.375864 -203.8653 1977.3311
12.407213 -245.66754 1976.4242
8.4385624 -287.46979 1975.5172
70.090416 -82.437714 1980.5074
66.121765 -124.23996 1979.6006
62.153111 -166.04221 1978.6937
58.18446 -207.84444 1977.7869
54.215809 -249.64668 1976.88
50.247158 -291.44891 1975.973
111.89901 -86.416862 1980.9633
107.93036 -128.2191 1980.0564
103.96171 -170.02135 1979.1495
99.993057 -211.82358 1978.2427
96.024406 -253.62582 1977.3358
92.055756 -295.42807 1976.4288
153.7076 -90.396004 1981.4191
149.73895 -132.19824 1980.5122
145.77029 -174.00049 1979.6053
141.80165 -215.80272 1978.6985
137.83299 -257.60498 1977.7916
133.86435 -299.4072 1976.8846
195.5162 -94.375145 1981.8749
191.54755 -136.17738 1980.968
187.5789 -177.97963 1980.0612
183.61024 -219.78186 1979.1543
179.6416 -261.58411 1978.2474
175.67294 -303.38635 1977.3405
237.3248 -98.354286 1982.3307
233.35614 -140.15652 1981.4238
229.3875 -181.95877 1980.517
225.41884 -223.76102 1979.6101
221.4502 -265.56326 1978.7032
217.48154 -307.36548 1977.7963
375.6698 324.44153 1976.5663
375.54459 282.44226 1976.3472
375.4194 240.44302 1976.1279
375.29422 198.44379 1975.9087
375.16901 156.44455 1975.6896
375.04382 114.4453 1975.4703
417.66882 324.31497 1976.8247
417.54361 282.31573 1976.6055
417.41843 240.31648 1976.3862
417.29321 198.31725 1976.1671
417.16803 156.31801 1975.9479
417.04282 114.31876 1975.7288
459.66782 324.18842 1977.083
459.54263 282.18918 1976.8638
459.41742 240.18994 1976.6447
459.29224 198.1907 1976.4254
459.16705 156.19145 1976.2062
459.04184 114.19221 1975.9871
501.66684 324.06189 1977.3413
501.54166 282.06265 1977.1222
501.41644 240.0634 1976.903
501.29126 198.06416 1976.6837
501.16605 156.06491 1976.4646
501.04086 114.06567 1976.2454
543.66583 323.93533 1977.5997
543.54065 281.9361 1977.3805
543.41547 239.93686 1977.1613
543.29028 197.93761 1976.9421
543.1651 155.93837 1976.7229
543.03986 113.93913 1976.5038
585.66486 323.80881 1977.858
585.53967 281.80954 1977.6388
585.41449 239.8103 1977.4197
585.28931 197.81107 1977.2004
585.16406 155.81183 1976.9812
585.03888 113.81258 1976.7621
627.66388 323.68225 1978.1163
627.5387 281.68301 1977.8972
627.41351 239.68376 1977.678
627.28827 197.68452 1977.4587
627.16309 155.68529 1977.2396
627.0379 113.68604 1977.0204
669.6629 323.55569 1978.3746
669.53772 281.55646 1978.1555
669.41254 239.55722 1977.9363
669.28729 197.55798 1977.7172
669.16211 155.55875 1977.4979
669.03693 113.55949 1977.2787
711.66193 323.42917 1978.6331
711.53674 281.42993 1978.4138
711.4115 239.43068 1978.1947
711.28632 197.43144 1977.9755
711.16113 155.43219 1977.7562
711.03595 113.43295 1977.5371
371.28647 -147.39101 1977.1333
369.81226 -189.36032 1976.4985
368.33804 -231.32964 1975.8638
366.86383 -273.29895 1975.2289
365.38962 -315.26828 1974.5941
363.91544 -357.23761 1973.9594
413.25894 -148.87057 1977.4812
411.78473 -190.8399 1976.8463
410.31055 -232.80922 1976.2115
408.83633 -274.77853 1975.5768
407.36212 -316.74786 1974.942
405.88791 -358.71716 1974.3073
455.23145 -150.35016 1977.829
453.75723 -192.31947 1977.1942
452.28302 -234.2888 1976.5594
450.80881 -276.25812 1975.9247
449.33459 -318.22745 1975.2898
447.86041 -360.19675 1974.655
497.20392 -151.82974 1978.1769
495.72971 -193.79906 1977.5421
494.25552 -235.76837 1976.9072
492.78131 -277.7377 1976.2725
491.3071 -319.70703 1975.6377
489.83289 -361.67633 1975.0029
539.17639 -153.30933 1978.5247
537.70221 -195.27864 1977.8899
536.22803 -237.24796 1977.2551
534.75378 -279.21729 1976.6204
533.2796 -321.18658 1975.9856
531.80536 -363.15591 1975.3507
581.14893 -154.78889 1978.8726
579.67468 -196.75822 1978.2378
578.2005 -238.72754 1977.603
576.72626 -280.69687 1976.9681
575.25208 -322.66617 1976.3334
573.77789 -364.6355 1975.6986
623.1214 -156.26848 1979.2205
621.64722 -198.23779 1978.5856
620.17297 -240.20712 1977.9508
618.69879 -282.17645 1977.316
617.22455 -324.14575 1976.6813
615.75037 -366.11508 1976.0465
665.09387 -157.74806 1979.5682
663.61969 -199.71738 1978.9335
662.14545 -241.68669 1978.2987
660.67126 -283.65601 1977.6638
659.19708 -325.62534 1977.0291
657.72284 -367.59467 1976.3943
707.06635 -159.22765 1979.9161
705.59216 -201.19696 1979.2812
704.11798 -243.16628 1978.6465
702.64374 -285.13559 1978.0117
701.16956 -327.10492 1977.377
699.69531 -369.07425 1976.7422
-171.01952 -277.03409 1970.9397
-170.05312 -319.01904 1970.3657
-169.08673 -361.004 1969.7919
-168.12033 -402.98895 1969.218
-167.15393 -444.97391 1968.644
-166.18755 -486.95886 1968.0702
-129.03313 -276.0741 1971.4114
-128.06674 -318.05905 1970.8375
-127.10035 -360.04401 1970.2635
-126.13396 -402.02896 1969.6897
-125.16756 -444.01392 1969.1158
-124.20116 -485.9989 1968.5419
-87.046753 -275.11411 1971.8831
-86.08036 -317.09909 1971.3092
-85.113968 -359.08405 1970.7352
-84.147575 -401.069 1970.1614
-83.181183 -443.05396 1969.5875
-82.21479 -485.03891 1969.0135
-45.060379 -274.15414 1972.3547
-44.093983 -316.1391 1971.7809
-43.12759 -358.12405 1971.2069
-42.161198 -400.10901 1970.6331
-41.194805 -442.09396 1970.0592
-40.228409 -484.07892 1969.4852
-3.0739999 -273.19415 1972.8264
-2.1076064 -315.17911 1972.2526
-1.1412127 -357.16406 1971.6787
-0.1748191 -399.14905 1971.1047
0.79157454 -441.134 1970.5309
1.7579681 -483.11896 1969.957
38.912376 -272.23419 1973.2981
39.878773 -314.21915 1972.7242
40.845165 -356.2041 1972.1504
41.811558 -398.18906 1971.5764
42.777954 -440.17401 1971.0026
43.744347 -482.15897 1970.4287
80.898758 -271.2742 1973.7698
81.86515 -313.25916 1973.1959
82.831543 -355.24411 1972.6221
83.797935 -397.22906 1972.0481
84.764328 -439.21405 1971.4742
85.730728 -481.19901 1970.9004
122.88513 -270.31421 1974.2415
123.85152 -312.29919 1973.6676
124.81792 -354.28415 1973.0938
125.78432 -396.2691 1972.5199
126.75071 -438.25406 1971.9459
127.7171 -480.23901 1971.3721
164.87151 -269.35425 1974.7133
165.83791 -311.3392 1974.1393
166.80431 -353.32416 1973.5654
167.77069 -395.30911 1972.9916
168.73709 -437.29407 1972.4176
169.70348 -479.27902 1971.8438
-262.83954 249.30873 1969.8978
-264.10992 207.32829 1969.7275
-265.38028 165.34785 1969.5571
-266.65067 123.36742 1969.3868
-267.92102 81.386978 1969.2166
-269.19141 39.406536 1969.0461
-220.86855 248.03497 1970.7996
-222.13892 206.05453 1970.6293
-223.40929 164.0741 1970.4589
-224.67966 122.09367 1970.2886
-225.95004 80.113228 1970.1182
-227.22041 38.13279 1969.9479
-178.89754 246.76123 1971.7013
-180.16792 204.78079 1971.5309
-181.43829 162.80035 1971.3606
-182.70866 120.81992 1971.1903
-183.97905 78.839478 1971.0199
-185.24942 36.859043 1970.8496
-136.92654 245.48749 1972.603
-138.19691 203.50705 1972.4326
-139.4673 161.52661 1972.2623
-140.73767 119.54617 1972.0919
-142.00804 77.565735 1971.9216
-143.27843 35.585293 1971.7513
-94.955551 244.21373 1973.5046
-96.225929 202.23329 1973.3344
-97.4963 160.25285 1973.1641
-98.766678 118.27242 1972.9937
-100.03705 76.291985 1972.8234
-101.30743 34.311546 1972.653
-52.984554 242.93999 1974.4064
-54.254929 200.95955 1974.2361
-55.525307 158.97911 1974.0657
-56.795681 116.99867 1973.8954
-58.066055 75.018234 1973.7251
-59.33643 33.037796 1973.5547
-11.013559 241.66624 1975.3081
-12.283935 199.68581 1975.1378
-13.55431 157.70537 1974.9674
-14.824684 115.72492 1974.7971
-16.09506 73.744484 1974.6267
-17.365435 31.76405 1974.4564
30.957436 240.39249 1976.2098
29.687061 198.41205 1976.0394
28.416687 156.43161 1975.8691
27.146311 114.45118 1975.6989
25.875937 72.470741 1975.5284
24.60556 30.490301 1975.3582
72.928429 239.11874 1977.1116
71.658058 197.13831 1976.9412
70.38768 155.15787 1976.7709
69.11731 113.17743 1976.6005
67.846931 71.196991 1976.4302
66.576553 29.216553 1976.2599
394.36975 426.05103 1976.9457
387.81619 384.56598 1976.7367
381.26263 343.08096 1976.5277
374.70911 301.59595 1976.3187
368.15555 260.11093 1976.1097
361.60199 218.6259 1975.9006
435.85422 419.49619 1977.2152
429.30066 378.01117 1977.0062
422.74713 336.52615 1976.7971
416.19357 295.04111 1976.5881
409.64001 253.55609 1976.3792
403.08646 212.07108 1976.1702
477.33868 412.94138 1977.4846
470.78516 371.45636 1977.2756
464.2316 329.97131 1977.0667
457.67804 288.4863 1976.8577
451.12448 247.00128 1976.6486
444.57095 205.51625 1976.4396
518.82318 406.38654 1977.7542
512.26959 364.90152 1977.545
505.71606 323.4165 1977.3361
499.16251 281.93149 1977.1271
492.60898 240.44646 1976.9181
486.05542 198.96143 1976.7091
560.30768 399.83173 1978.0236
553.75409 358.34671 1977.8146
547.20056 316.86166 1977.6056
540.64697 275.37665 1977.3965
534.09344 233.89163 1977.1875
527.53992 192.4066 1976.9785
601.79211 393.27692 1978.2931
595.23859 351.79187 1978.084
588.685 310.30685 1977.875
582.13147 268.82184 1977.666
575.57794 227.33681 1977.457
569.02435 185.85178 1977.2479
643.27661 386.72208 1978.5625
636.72302 345.23706 1978.3535
630.16949 303.75204 1978.1445
623.61597 262.267 1977.9354
617.06238 220.78198 1977.7264
610.50885 179.29697 1977.5175
684.76105 380.16727 1978.8319
678.20752 338.68225 1978.6229
671.65399 297.1972 1978.4139
665.1004 255.71219 1978.205
658.54688 214.22716 1977.996
651.99335 172.74214 1977.7869
726.24554 373.61243 1979.1014
719.69202 332.12741 1978.8925
713.13843 290.6424 1978.6833
706.5849 249.15736 1978.4744
700.03137 207.67235 1978.2654
693.47778 166.18732 1978.0564
-575.49536 319.32147 1963.9958
-574.07153 277.34561 1964.0159
-572.64777 235.36977 1964.0359
-571.22394 193.39391 1964.0559
-569.80017 151.41806 1964.0759
-568.37634 109.4422 1964.0959
-533.53156 320.74536 1965.0007
-532.10773 278.7695 1965.0208
-530.6839 236.79364 1965.0408
-529.26013 194.81778 1965.0608
-527.8363 152.84193 1965.0808
-526.41254 110.86607 1965.1008
-491.56769 322.16922 1966.0056
-490.14389 280.19336 1966.0256
-488.72009 238.21751 1966.0457
-487.2963 196.24165 1966.0657
-485.8725 154.26581 1966.0857
-484.4487 112.28995 1966.1057
-449.60388 323.59311 1967.0105
-448.18008 281.61725 1967.0305
-446.75626 239.64139 1967.0505
-445.33246 197.66553 1967.0706
-443.90866 155.68968 1967.0906
-442.48486 113.71382 1967.1106
-407.64005 325.01697 1968.0154
-406.21625 283.04111 1968.0354
-404.79245 241.06526 1968.0554
-403.36865 199.0894 1968.0754
-401.94482 157.11356 1968.0955
-400.52103 115.1377 1968.1155
-365.67621 326.44086 1969.0203
-364.25241 284.465 1969.0403
-362.82861 242.48914 1969.0603
-361.40482 200.51328 1969.0803
-359.98102 158.53743 1969.1003
-358.55722 116.56157 1969.1204
-323.7124 327.86472 1970.0251
-322.2886 285.88885 1970.0452
-320.86478 243.91301 1970.0652
-319.44098 201.93715 1970.0852
-318.01718 159.9613 1970.1052
-316.59338 117.98544 1970.1252
-281.74857 329.2886 1971.03
-280.32477 287.31274 1971.05
-278.90097 245.33688 1971.0701
-277.47717 203.36102 1971.0901
-276.05334 161.38518 1971.1101
-274.62955 119.40932 1971.1301
-239.78474 330.71246 1972.0349
-238.36093 288.7366 1972.0549
-236.93713 246.76076 1972.075
-235.51334 204.7849 1972.095
-234.08952 162.80905 1972.115
-232.66573 120.83319 1972.135
-609.44122 -284.2348 1959.9926
-607.00494 -326.16388 1959.8586
-604.5686 -368.09293 1959.7247
-602.13232 -410.022 1959.5907
-599.69604 -451.95105 1959.4568
-597.25977 -493.88013 1959.3229
-567.5177 -281.80109 1960.6962
-565.08136 -323.73013 1960.5623
-562.64508 -365.65921 1960.4282
-560.2088 -407.58829 1960.2943
-557.77252 -449.51733 1960.1604
-555.33624 -491.44641 1960.0265
-525.59418 -279.36737 1961.3997
-523.15784 -321.29642 1961.2657
-520.72156 -363.22549 1961.1318
-518.28528 -405.15457 1960.9979
-515.849 -447.08362 1960.864
-513.41272 -489.0127 1960.73
-483.67062 -276.93365 1962.1033
-481.23434 -318.8627 1961.9694
-478.79807 -360.79178 1961.8354
-476.36176 -402.72086 1961.7014
-473.92548 -444.6499 1961.5675
-471.4892 -486.57898 1961.4336
-441.7471 -274.49994 1962.8069
-439.31082 -316.42899 1962.673
-436.87451 -358.35806 1962.5389
-434.43823 -400.28714 1962.405
-432.00195 -442.21619 1962.2711
-429.56567 -484.14526 1962.1372
-399.82358 -272.06622 1963.5104
-397.3873 -313.99527 1963.3765
-394.95099 -355.92435 1963.2426
-392.51471 -397.85342 1963.1086
-390.07843 -439.78247 1962.9747
-387.64215 -481.71155 1962.8407
-357.90005 -269.63251 1964.214
-355.46375 -311.56155 1964.0801
-353.02747 -353.49063 1963.9462
-350.59119 -395.41968 1963.8121
-348.15491 -437.34875 1963.6782
-345.71863 -479.27783 1963.5443
-315.97653 -267.19879 1964.9176
-313.54022 -309.12784 1964.7836
-311.10394 -351.05692 1964.6497
-308.66766 -392.98596 1964.5157
-306.23138 -434.91504 1964.3818
-303.79507 -476.84412 1964.2479
-274.05301 -264.76505 1965.6211
-271.6167 -306.69412 1965.4872
-269.18042 -348.6232 1965.3533
-266.74414 -390.55225 1965.2194
-264.30786 -432.48132 1965.0854
-261.87155 -474.4104 1964.9514
