# .PCD v0.7 - Point Cloud Data file format
VERSION 0.7
FIELDS x y z
SIZE 4 4 4
TYPE F F F
COUNT 1 1 1
WIDTH 325
HEIGHT 1
VIEWPOINT 0 0 0 1 0 0 0
POINTS 325
DATA ascii
0 0 0
224.58005 114.64532 1947.2439
223.73221 72.655296 1946.899
222.88438 30.665268 1946.5542
222.03654 -11.324759 1946.2094
221.18872 -53.314785 1945.8645
220.34088 -95.30481 1945.5195
266.56793 113.80207 1946.6908
265.72009 71.812042 1946.3458
264.87228 29.82202 1946.001
264.02444 -12.168005 1945.6561
263.17661 -54.158031 1945.3113
262.32877 -96.148056 1944.9664
308.55582 112.95882 1946.1376
307.70801 70.968796 1945.7927
306.86017 28.978773 1945.4479
306.01233 -13.011252 1945.1029
305.16449 -55.001278 1944.7581
304.31665 -96.991302 1944.4132
350.54373 112.11558 1945.5844
349.69589 70.125549 1945.2395
348.84805 28.135527 1944.8947
348.00021 -13.854499 1944.5498
347.15237 -55.844524 1944.205
346.30457 -97.834549 1943.86
392.53162 111.27233 1945.0312
391.68378 69.282303 1944.6863
390.83594 27.29228 1944.3414
389.9881 -14.697746 1943.9966
389.14029 -56.687771 1943.6517
388.29245 -98.677795 1943.3069
434.5195 110.42908 1944.478
433.67166 68.439056 1944.1332
432.82382 26.449032 1943.7883
431.97601 -15.540993 1943.4434
431.12817 -57.531017 1943.0985
430.28033 -99.521042 1942.7537
476.50739 109.58584 1943.9248
475.65955 67.59581 1943.58
474.81174 25.605785 1943.2351
473.9639 -16.384239 1942.8903
473.11606 -58.374264 1942.5454
472.26822 -100.36429 1942.2004
518.4953 108.74259 1943.3717
517.64746 66.752563 1943.0267
516.79962 24.762539 1942.6819
515.95178 -17.227486 1942.337
515.10394 -59.21751 1941.9922
514.2561 -101.20753 1941.6473
560.48315 107.89935 1942.8185
559.63531 65.909317 1942.4736
558.78748 23.919292 1942.1288
557.9397 -18.070734 1941.7838
557.09186 -60.06076 1941.439
556.24402 -102.05078 1941.0941
224.57883 114.64734 1947.2761
223.73174 72.657265 1946.9358
222.88466 30.667189 1946.5953
222.03758 -11.322889 1946.2549
221.19051 -53.312965 1945.9144
220.34341 -95.30304 1945.5741
266.56665 113.80484 1946.7169
265.71957 71.814766 1946.3765
264.8725 29.824688 1946.036
264.02539 -12.165389 1945.6956
263.17831 -54.155468 1945.3552
262.33124 -96.145546 1945.0148
308.55447 112.96234 1946.1576
307.7074 70.972267 1945.8171
306.86032 28.982187 1945.4767
306.01324 -13.00789 1945.1364
305.16614 -54.997967 1944.7959
304.31906 -96.988045 1944.4554
350.5423 112.11984 1945.5983
349.69522 70.129761 1945.2579
348.84814 28.139687 1944.9175
348.00107 -13.850389 1944.577
347.15396 -55.840466 1944.2366
346.30688 -97.830544 1943.8962
392.53012 111.27734 1945.0391
391.68304 69.287262 1944.6986
390.83597 27.297188 1944.3582
389.98889 -14.692889 1944.0177
389.14178 -56.682968 1943.6774
388.29471 -98.673042 1943.3369
434.51794 110.43484 1944.4797
433.67087 68.444763 1944.1393
432.82379 26.454687 1943.7988
431.97672 -15.53539 1943.4585
431.12961 -57.525467 1943.118
430.28253 -99.515541 1942.7776
476.50577 109.59234 1943.9204
475.65869 67.602264 1943.5801
474.81161 25.612186 1943.2396
473.96454 -16.37789 1942.8992
473.11746 -58.367966 1942.5587
472.27036 -100.35805 1942.2184
518.49359 108.74984 1943.3612
517.64648 66.759766 1943.0208
516.79944 24.769688 1942.6803
515.95233 -17.22039 1942.3398
515.10529 -59.210468 1941.9995
514.25818 -101.20055 1941.6591
560.48145 107.90734 1942.8019
559.63434 65.917267 1942.4614
558.78723 23.927187 1942.121
557.94019 -18.062891 1941.7806
557.09308 -60.052967 1941.4402
556.24603 -102.04305 1941.0997
33.995472 -216.6656 1948.938
70.480392 -195.86346 1948.5892
106.96531 -175.06133 1948.2405
143.45023 -154.25919 1947.8918
179.93515 -133.45705 1947.5431
216.42006 -112.65491 1947.1943
13.194479 -180.17903 1949.1572
49.679398 -159.37689 1948.8086
86.164314 -138.57475 1948.4598
122.64924 -117.77261 1948.1111
159.13416 -96.970467 1947.7623
195.61908 -76.168327 1947.4136
-7.606514 -143.69244 1949.3766
28.878405 -122.8903 1949.0278
65.363327 -102.08817 1948.6791
101.84824 -81.286026 1948.3303
138.33316 -60.483883 1947.9816
174.81808 -39.681744 1947.6328
-28.407507 -107.20586 1949.5958
8.0774126 -86.403725 1949.2471
44.562332 -65.601585 1948.8983
81.047249 -44.799442 1948.5496
117.53217 -23.997303 1948.2008
154.01709 -3.1951618 1947.8522
-49.2085 -70.719284 1949.8151
-12.72358 -49.917145 1949.4663
23.761339 -29.115004 1949.1176
60.246258 -8.3128624 1948.7689
96.731178 12.489279 1948.4202
133.21609 33.29142 1948.0714
-70.009491 -34.232704 1950.0343
-33.524574 -13.430563 1949.6857
2.9603457 7.3715782 1949.3369
39.445263 28.173719 1948.9882
75.930183 48.975861 1948.6394
112.4151 69.778 1948.2906
-90.810486 2.2538779 1950.2537
-54.325565 23.056019 1949.9049
-17.840647 43.858158 1949.5562
18.644272 64.660301 1949.2074
55.129192 85.46244 1948.8586
91.614113 106.26458 1948.5099
-111.61148 38.740459 1950.4729
-75.126556 59.542599 1950.1241
-38.64164 80.344742 1949.7754
-2.1567209 101.14688 1949.4266
34.328197 121.94902 1949.0779
70.813118 142.75116 1948.7292
-132.41248 75.227043 1950.6921
-95.927551 96.029182 1950.3434
-59.442635 116.83132 1949.9946
-22.957714 137.63347 1949.646
13.527205 158.43561 1949.2972
50.012123 179.23775 1948.9485
-437.11505 -208.79305 1952.9214
-418.31598 -246.35072 1953.046
-399.51691 -283.90842 1953.1705
-380.71783 -321.46609 1953.2952
-361.91876 -359.02377 1953.4198
-343.11969 -396.58145 1953.5444
-399.56012 -189.99731 1952.3309
-380.76105 -227.55501 1952.4556
-361.96198 -265.11267 1952.5802
-343.1629 -302.67038 1952.7047
-324.36386 -340.22806 1952.8293
-305.56479 -377.78574 1952.954
-362.00519 -171.2016 1951.7406
-343.20615 -208.75928 1951.8651
-324.40707 -246.31696 1951.9897
-305.608 -283.87463 1952.1144
-286.80893 -321.43231 1952.239
-268.00986 -358.99002 1952.3635
-324.45029 -152.40587 1951.1501
-305.65121 -189.96355 1951.2748
-286.85214 -227.52124 1951.3994
-268.05307 -265.07892 1951.5239
-249.25401 -302.6366 1951.6486
-230.45494 -340.19427 1951.7732
-286.89536 -133.61014 1950.5597
-268.09628 -171.16783 1950.6843
-249.29723 -208.72551 1950.809
-230.49815 -246.28319 1950.9336
-211.69908 -283.84088 1951.0582
-192.90002 -321.39856 1951.1827
-249.34044 -114.81441 1949.9694
-230.54137 -152.3721 1950.094
-211.74229 -189.92978 1950.2185
-192.94324 -227.48746 1950.3431
-174.14417 -265.04514 1950.4678
-155.34509 -302.60281 1950.5924
-211.78552 -96.018684 1949.3789
-192.98645 -133.57637 1949.5035
-174.18738 -171.13405 1949.6282
-155.38831 -208.69174 1949.7528
-136.58925 -246.24942 1949.8773
-117.79018 -283.8071 1950.002
-174.23059 -77.222961 1948.7886
-155.43153 -114.78065 1948.9131
-136.63246 -152.33833 1949.0377
-117.83339 -189.89601 1949.1624
-99.034325 -227.45369 1949.287
-80.235252 -265.01138 1949.4116
-136.67567 -58.427235 1948.1981
-117.8766 -95.984917 1948.3228
-99.077538 -133.5426 1948.4474
-80.278473 -171.10028 1948.5719
-61.479404 -208.65796 1948.6965
-42.680336 -246.21565 1948.8212
-617.22253 428.77295 1958.4141
-614.03357 386.89499 1958.6777
-610.8446 345.01706 1958.9415
-607.6557 303.13913 1959.2052
-604.46674 261.2612 1959.4689
-601.27777 219.38329 1959.7325
-575.34644 431.95862 1957.9187
-572.15747 390.08069 1958.1824
-568.96857 348.20276 1958.4462
-565.7796 306.32483 1958.7098
-562.59064 264.4469 1958.9735
-559.40173 222.56897 1959.2372
-533.47034 435.14429 1957.4233
-530.28143 393.26636 1957.687
-527.09247 351.38843 1957.9508
-523.9035 309.5105 1958.2145
-520.7146 267.63257 1958.4781
-517.52563 225.75464 1958.7418
-491.59427 438.32999 1956.928
-488.40533 396.45206 1957.1917
-485.2164 354.57413 1957.4554
-482.02744 312.6962 1957.7191
-478.8385 270.81827 1957.9828
-475.64957 228.94032 1958.2465
-449.7182 441.51566 1956.4326
-446.52924 399.63773 1956.6963
-443.3403 357.7598 1956.9601
-440.15137 315.88187 1957.2238
-436.96243 274.00394 1957.4874
-433.77347 232.12601 1957.7511
-407.8421 444.70135 1955.9373
-404.65317 402.82343 1956.2009
-401.46423 360.9455 1956.4647
-398.2753 319.06757 1956.7284
-395.08633 277.18964 1956.9921
-391.8974 235.31169 1957.2557
-365.96603 447.88702 1955.4419
-362.7771 406.00909 1955.7056
-359.58813 364.13116 1955.9694
-356.3992 322.25323 1956.233
-353.21027 280.37531 1956.4967
-350.02133 238.49738 1956.7604
-324.08997 451.07272 1954.9465
-320.901 409.19479 1955.2102
-317.71207 367.31686 1955.474
-314.52313 325.43893 1955.7377
-311.3342 283.561 1956.0013
-308.14523 241.68306 1956.265
-282.21387 454.25839 1954.4512
-279.02493 412.38046 1954.7148
-275.836 370.50253 1954.9785
-272.64703 328.6246 1955.2423
-269.4581 286.74667 1955.506
-266.26917 244.86874 1955.7697
281.40857 -203.15781 1947.9116
283.08398 -245.12306 1947.5803
284.7594 -287.08832 1947.2489
286.43481 -329.05359 1946.9176
288.11023 -371.01886 1946.5862
289.78564 -412.9841 1946.2549
323.36969 -201.47733 1947.2488
325.0451 -243.44258 1946.9174
326.72052 -285.40784 1946.5859
328.39594 -327.37311 1946.2546
330.07135 -369.33838 1945.9232
331.74677 -411.30362 1945.5919
365.33084 -199.79684 1946.5858
367.00626 -241.7621 1946.2544
368.68167 -283.72736 1945.9231
370.35709 -325.69263 1945.5917
372.0325 -367.6579 1945.2603
373.70789 -409.62314 1944.929
407.29196 -198.11636 1945.9229
408.96738 -240.08162 1945.5914
410.64279 -282.04688 1945.2601
412.31821 -324.01215 1944.9287
413.99362 -365.97742 1944.5974
415.66904 -407.94266 1944.266
449.25308 -196.43587 1945.2599
450.9285 -238.40114 1944.9286
452.60391 -280.36639 1944.5972
454.27933 -322.33167 1944.2657
455.95474 -364.29691 1943.9344
457.63016 -406.26218 1943.603
491.21423 -194.75539 1944.5969
492.88965 -236.72066 1944.2656
494.56506 -278.68591 1943.9342
496.24048 -320.65118 1943.6029
497.91589 -362.61642 1943.2715
499.59128 -404.5817 1942.9401
533.17535 -193.07491 1943.934
534.85077 -235.04018 1943.6027
536.52618 -277.00543 1943.2712
538.2016 -318.9707 1942.9399
539.87701 -360.93594 1942.6085
541.55243 -402.90121 1942.2772
575.13647 -191.39442 1943.2711
576.81189 -233.35968 1942.9397
578.4873 -275.32495 1942.6084
580.16272 -317.29022 1942.277
581.83813 -359.25546 1941.9456
583.51355 -401.22073 1941.6143
617.0976 -189.71394 1942.6082
618.77301 -231.6792 1942.2767
620.44843 -273.64447 1941.9454
622.12384 -315.60974 1941.614
623.79926 -357.57498 1941.2827
625.47467 -399.54025 1940.9513
