# .PCD v0.7 - Point Cloud Data file format
VERSION 0.7
FIELDS x y z
SIZE 4 4 4
TYPE F F F
COUNT 1 1 1
WIDTH 241
HEIGHT 1
VIEWPOINT 0 0 0 1 0 0 0
POINTS 241
DATA ascii
0 0 0
-262.72266 113.52843 1937.2672
-263.24847 53.53492 1937.9761
-263.77429 -6.45859 1938.6848
-264.30011 -66.452095 1939.3937
-264.82593 -126.44561 1940.1025
-202.72606 113.00695 1937.6364
-203.25188 53.013439 1938.3451
-203.77768 -6.9800706 1939.054
-204.3035 -66.973579 1939.7628
-204.82932 -126.96709 1940.4717
-142.72946 112.48547 1938.0054
-143.25528 52.491959 1938.7142
-143.78108 -7.5015512 1939.4231
-144.3069 -67.495056 1940.132
-144.83272 -127.48857 1940.8407
-82.732857 111.96398 1938.3745
-83.258675 51.970478 1939.0834
-83.784492 -8.0230322 1939.7922
-84.310303 -68.016541 1940.501
-84.836121 -128.01006 1941.2098
-22.736261 111.4425 1938.7437
-23.262075 51.448997 1939.4525
-23.787891 -8.5445127 1940.1613
-24.313705 -68.538017 1940.8701
-24.83952 -128.53152 1941.579
37.260338 110.92102 1939.1127
36.734524 50.927517 1939.8215
36.208706 -9.0659933 1940.5304
35.682892 -69.059502 1941.2393
35.157078 -129.05301 1941.9481
97.256935 110.39954 1939.4818
96.731117 50.406036 1940.1907
96.205307 -9.5874739 1940.8995
95.679489 -69.580986 1941.6084
95.153679 -129.57449 1942.3171
157.25354 109.87806 1939.851
156.72772 49.884556 1940.5598
156.2019 -10.108954 1941.2687
155.67609 -70.102463 1941.9774
155.15027 -130.09598 1942.6863
-562.48938 -76.911346 1938.1388
-560.25513 -136.86624 1938.7866
-558.02087 -196.82112 1939.4346
-555.78662 -256.776 1940.0825
-553.55237 -316.7309 1940.7303
-502.53464 -74.670204 1938.778
-500.30038 -134.62509 1939.4258
-498.06616 -194.57997 1940.0737
-495.83191 -254.53487 1940.7217
-493.59766 -314.48975 1941.3695
-442.57993 -72.429062 1939.417
-440.34567 -132.38394 1940.0649
-438.11142 -192.33884 1940.7129
-435.8772 -252.29372 1941.3607
-433.64294 -312.2486 1942.0087
-382.62518 -70.187912 1940.0562
-380.39096 -130.14281 1940.7041
-378.15671 -190.09769 1941.3519
-375.92245 -250.05257 1941.9999
-373.68823 -310.00745 1942.6478
-322.67047 -67.94677 1940.6953
-320.43622 -127.90166 1941.3433
-318.202 -187.85654 1941.9911
-315.96774 -247.81143 1942.639
-313.73349 -307.76633 1943.2869
-262.71576 -65.705627 1941.3345
-260.48151 -125.66051 1941.9823
-258.24725 -185.6154 1942.6302
-256.01303 -245.57028 1943.2782
-253.77878 -305.52518 1943.926
-202.76103 -63.464481 1941.9735
-200.52678 -123.41936 1942.6215
-198.29254 -183.37425 1943.2694
-196.05829 -243.32913 1943.9172
-193.82405 -303.28403 1944.5652
-142.8063 -61.223335 1942.6127
-140.57207 -121.17822 1943.2606
-138.33781 -181.1331 1943.9084
-136.10358 -241.088 1944.5564
-133.86932 -301.04288 1945.2043
-557.7334 98.162071 1937.4889
-548.07178 38.946815 1937.944
-538.41022 -20.268436 1938.399
-528.7486 -79.483688 1938.8541
-519.08698 -138.69894 1939.3092
-498.51959 107.82765 1938.0363
-488.85797 48.6124 1938.4913
-479.19638 -10.602856 1938.9464
-469.53476 -69.818108 1939.4015
-459.87314 -129.03336 1939.8566
-439.30576 117.49323 1938.5836
-429.64413 58.277981 1939.0387
-419.98254 -0.93727428 1939.4938
-410.32092 -60.152527 1939.9489
-400.65933 -119.36778 1940.4039
-380.09192 127.15881 1939.131
-370.43033 67.943558 1939.5861
-360.76871 8.7283068 1940.0411
-351.10712 -50.486946 1940.4962
-341.4455 -109.7022 1940.9513
-320.87811 136.8244 1939.6783
-311.21649 77.609138 1940.1334
-301.5549 18.393888 1940.5885
-291.89328 -40.821365 1941.0436
-282.23169 -100.03662 1941.4987
-261.66428 146.48997 1940.2258
-252.00269 87.274719 1940.6808
-242.34106 28.059469 1941.1359
-232.67946 -31.155785 1941.5909
-223.01785 -90.37104 1942.046
-202.45045 156.15556 1940.7732
-192.78885 96.9403 1941.2283
-183.12724 37.725048 1941.6832
-173.46564 -21.490204 1942.1383
-163.80403 -80.70546 1942.5934
-143.23663 165.82114 1941.3206
-133.57503 106.60588 1941.7756
-123.91342 47.390629 1942.2307
-114.25182 -11.824623 1942.6857
-104.59021 -71.039879 1943.1407
218.52922 223.41745 1941.1702
212.95616 163.67787 1941.522
207.3831 103.93829 1941.8737
201.81004 44.198708 1942.2253
196.23698 -15.540872 1942.577
278.26965 217.84537 1941.3518
272.69659 158.10579 1941.7035
267.12354 98.366211 1942.0552
261.55048 38.626637 1942.407
255.97742 -21.112944 1942.7587
338.0101 212.2733 1941.5333
332.43701 152.53372 1941.8851
326.86395 92.794144 1942.2368
321.29089 33.054562 1942.5885
315.71783 -26.685015 1942.9403
397.75052 206.70123 1941.715
392.17746 146.96165 1942.0667
386.6044 87.222069 1942.4185
381.03134 27.482492 1942.7701
375.45828 -32.257088 1943.1218
457.49094 201.12915 1941.8966
451.91788 141.38957 1942.2483
446.34482 81.650002 1942.6
440.77176 21.910419 1942.9517
435.1987 -37.829159 1943.3035
517.23138 195.55708 1942.0781
511.65833 135.8175 1942.4298
506.08527 76.077927 1942.7816
500.51221 16.338348 1943.1333
494.93915 -43.40123 1943.485
576.9718 189.98502 1942.2598
571.39874 130.24544 1942.6115
565.82568 70.505852 1942.9631
560.25262 10.766276 1943.3149
554.67957 -48.973301 1943.6666
636.71222 184.41295 1942.4413
631.13916 124.67336 1942.7931
625.5661 64.933784 1943.1448
619.99304 5.1942043 1943.4965
614.41998 -54.545376 1943.8481
118.56124 -60.873573 1944.2921
116.04304 -120.81945 1944.6804
113.52483 -180.76532 1945.0688
111.00661 -240.7112 1945.4572
108.48841 -300.65707 1945.8455
178.50822 -63.390835 1944.4456
175.99001 -123.33671 1944.8339
173.4718 -183.28258 1945.2223
170.9536 -243.22845 1945.6106
168.43538 -303.17432 1945.999
238.4552 -65.908096 1944.599
235.93698 -125.85397 1944.9873
233.41878 -185.79985 1945.3757
230.90057 -245.74571 1945.764
228.38235 -305.69159 1946.1525
298.40216 -68.425354 1944.7524
295.88397 -128.37123 1945.1409
293.36575 -188.31711 1945.5292
290.84753 -248.26299 1945.9176
288.32935 -308.20886 1946.3059
358.34915 -70.942619 1944.9059
355.83093 -130.88849 1945.2943
353.31271 -190.83437 1945.6826
350.79453 -250.78024 1946.071
348.27631 -310.7261 1946.4594
418.29611 -73.459877 1945.0594
415.77792 -133.40575 1945.4478
413.2597 -193.35162 1945.8362
410.74149 -253.2975 1946.2245
408.2233 -313.24338 1946.6128
478.2431 -75.977142 1945.2129
475.72488 -135.92302 1945.6012
473.20667 -195.86888 1945.9896
470.68848 -255.81476 1946.3779
468.17026 -315.76062 1946.7664
538.19006 -78.4944 1945.3663
535.67188 -138.44028 1945.7548
533.15363 -198.38615 1946.1431
530.63544 -258.33203 1946.5314
528.11725 -318.27789 1946.9198
-493.01324 -27.958067 1937.3979
-493.03979 -87.954346 1938.0657
-493.06635 -147.95062 1938.7334
-493.09286 -207.9469 1939.4011
-493.11942 -267.94318 1940.0687
-433.01562 -27.978699 1937.9288
-433.04214 -87.974976 1938.5966
-433.0687 -147.97125 1939.2643
-433.09521 -207.96753 1939.932
-433.12177 -267.96381 1940.5997
-373.01797 -27.999331 1938.4598
-373.04449 -87.995605 1939.1274
-373.07104 -147.99188 1939.7952
-373.0976 -207.98816 1940.4629
-373.12411 -267.98444 1941.1306
-313.02032 -28.01996 1938.9907
-313.04684 -88.016235 1939.6584
-313.07339 -148.01251 1940.3262
-313.09995 -208.00879 1940.9939
-313.12646 -268.00507 1941.6616
-253.02267 -28.040592 1939.5216
-253.04921 -88.036873 1940.1893
-253.07574 -148.03314 1940.8571
-253.10228 -208.02943 1941.5248
-253.12883 -268.0257 1942.1925
-193.02502 -28.061222 1940.0526
-193.05156 -88.057503 1940.7203
-193.07809 -148.05377 1941.3881
-193.10464 -208.05006 1942.0558
-193.13118 -268.04633 1942.7235
-133.02737 -28.081854 1940.5835
-133.05391 -88.078133 1941.2512
-133.08046 -148.07442 1941.9189
-133.10699 -208.07069 1942.5867
-133.13353 -268.06696 1943.2544
-73.029724 -28.102484 1941.1145
-73.056267 -88.098763 1941.7822
-73.082802 -148.09505 1942.4498
-73.109344 -208.09132 1943.1176
-73.135887 -268.08759 1943.7853
