# .PCD v0.7 - Point Cloud Data file format
VERSION 0.7
FIELDS x y z
SIZE 4 4 4
TYPE F F F
COUNT 1 1 1
WIDTH 217
HEIGHT 1
VIEWPOINT 0 0 0 1 0 0 0
POINTS 217
DATA ascii
0 0 0
12.195913 105.04838 1979.6836
12.213105 63.048946 1979.4667
12.230296 21.049509 1979.2498
12.247488 -20.949928 1979.033
12.264679 -62.949364 1978.816
12.28187 -104.9488 1978.5991
54.195782 105.06611 1979.5798
54.212975 63.066673 1979.3629
54.230164 21.067236 1979.1461
54.247356 -20.932201 1978.9292
54.264545 -62.931637 1978.7123
54.281738 -104.93108 1978.4954
96.195648 105.08384 1979.4761
96.212845 63.0844 1979.2593
96.230034 21.084963 1979.0424
96.247223 -20.914474 1978.8254
96.264412 -62.91391 1978.6085
96.281609 -104.91335 1978.3917
138.19551 105.10156 1979.3724
138.21271 63.102127 1979.1555
138.2299 21.10269 1978.9386
138.24709 -20.896746 1978.7217
138.26428 -62.896183 1978.5049
138.28148 -104.89562 1978.288
180.19539 105.11929 1979.2687
180.21257 63.119854 1979.0518
180.22977 21.120417 1978.8348
180.24696 -20.879019 1978.618
180.26414 -62.878456 1978.4011
180.28134 -104.87789 1978.1842
222.19525 105.13702 1979.1649
222.21245 63.137581 1978.948
222.22964 21.138144 1978.7312
222.24683 -20.861292 1978.5143
222.26402 -62.860729 1978.2974
222.2812 -104.86017 1978.0806
264.19513 105.15475 1979.0612
264.21231 63.155308 1978.8444
264.22949 21.15587 1978.6274
264.2467 -20.843565 1978.4105
264.26389 -62.843002 1978.1937
264.28107 -104.84244 1977.9768
306.19498 105.17247 1978.9575
306.21219 63.173035 1978.7406
306.22937 21.173599 1978.5237
306.24655 -20.825838 1978.3069
306.26376 -62.825275 1978.09
306.28094 -104.82471 1977.873
348.19485 105.1902 1978.8538
348.21204 63.190762 1978.6368
348.22925 21.191326 1978.42
348.24643 -20.808111 1978.2031
348.26361 -62.807549 1977.9862
348.28082 -104.80698 1977.7694
394.75989 -212.83574 1980.538
394.25854 -254.83215 1980.7601
393.75717 -296.82858 1980.9823
393.25583 -338.82501 1981.2045
392.75449 -380.82141 1981.4266
392.25311 -422.81784 1981.6488
436.75589 -213.33861 1980.2501
436.25455 -255.33502 1980.4723
435.75317 -297.33145 1980.6945
435.25183 -339.32788 1980.9166
434.75049 -381.32428 1981.1388
434.24911 -423.32071 1981.361
478.75189 -213.84148 1979.9623
478.25055 -255.83791 1980.1844
477.74918 -297.83432 1980.4066
477.24783 -339.83075 1980.6288
476.74649 -381.82715 1980.851
476.24512 -423.82358 1981.0732
520.74792 -214.34436 1979.6744
520.24652 -256.34076 1979.8966
519.74518 -298.33719 1980.1188
519.24384 -340.33362 1980.3411
518.74249 -382.33005 1980.5632
518.24115 -424.32645 1980.7854
562.7439 -214.84723 1979.3867
562.24255 -256.84366 1979.6089
561.74121 -298.84006 1979.8311
561.23987 -340.83649 1980.0532
560.73846 -382.83292 1980.2754
560.23712 -424.82932 1980.4976
604.73993 -215.3501 1979.0989
604.23853 -257.34653 1979.321
603.73718 -299.34293 1979.5432
603.23584 -341.33936 1979.7654
602.7345 -383.33578 1979.9875
602.23315 -425.33218 1980.2097
646.7359 -215.85297 1978.811
646.23456 -257.8494 1979.0332
645.73322 -299.84579 1979.2554
645.23187 -341.84222 1979.4775
644.73047 -383.83865 1979.6997
644.22913 -425.83508 1979.9219
688.73193 -216.35583 1978.5232
688.23053 -258.35226 1978.7454
687.72919 -300.34869 1978.9675
687.22784 -342.34509 1979.1897
686.7265 -384.34152 1979.4119
686.22516 -426.33795 1979.634
730.72791 -216.85872 1978.2354
730.22656 -258.85513 1978.4575
729.72522 -300.85156 1978.6797
729.22388 -342.84796 1978.9019
728.72247 -384.84439 1979.124
728.22113 -426.84082 1979.3462
-424.53543 -163.12503 1979.1591
-423.83054 -205.11633 1979.642
-423.12564 -247.10764 1980.1249
-422.42075 -289.09894 1980.6078
-421.71588 -331.09027 1981.0906
-421.01099 -373.08157 1981.5735
-382.54352 -162.42514 1978.7228
-381.83862 -204.41646 1979.2057
-381.13376 -246.40776 1979.6885
-380.42886 -288.39908 1980.1714
-379.72397 -330.39038 1980.6543
-379.01907 -372.38168 1981.1372
-340.55164 -161.72527 1978.2865
-339.84674 -203.71657 1978.7693
-339.14185 -245.70789 1979.2522
-338.43695 -287.69919 1979.7351
-337.73206 -329.69049 1980.2179
-337.02719 -371.68179 1980.7008
-298.55972 -161.02539 1977.8501
-297.85483 -203.01669 1978.333
-297.14993 -245.008 1978.8159
-296.44507 -286.9993 1979.2987
-295.74017 -328.99063 1979.7816
-295.03528 -370.98193 1980.2645
-256.56781 -160.3255 1977.4138
-255.86293 -202.31682 1977.8966
-255.15805 -244.30812 1978.3795
-254.45316 -286.29944 1978.8624
-253.74826 -328.29074 1979.3452
-253.04338 -370.28204 1979.8281
-214.57591 -159.62563 1976.9774
-213.87103 -201.61693 1977.4603
-213.16614 -243.60825 1977.9432
-212.46126 -285.59955 1978.426
-211.75636 -327.59085 1978.9089
-211.05148 -369.58215 1979.3918
-172.58401 -158.92575 1976.5411
-171.87914 -200.91705 1977.0239
-171.17424 -242.90836 1977.5068
-170.46936 -284.89966 1977.9897
-169.76447 -326.89099 1978.4727
-169.05957 -368.88229 1978.9554
-130.59212 -158.22586 1976.1047
-129.88722 -200.21718 1976.5876
-129.18234 -242.20848 1977.0706
-128.47745 -284.1998 1977.5533
-127.77256 -326.1911 1978.0363
-127.06767 -368.1824 1978.5192
-88.600212 -157.52599 1975.6685
-87.895325 -199.51729 1976.1514
-87.190437 -241.50861 1976.6342
-86.48555 -283.49991 1977.1171
-85.780663 -325.49121 1977.6
-85.075775 -367.48251 1978.0828
-492.55225 362.37424 1980.3491
-491.66641 320.38666 1980.8566
-490.78055 278.39905 1981.3639
-489.89471 236.41147 1981.8713
-489.00888 194.42387 1982.3787
-488.12305 152.43628 1982.8861
-450.56339 363.25531 1979.9512
-449.67752 321.2677 1980.4586
-448.79169 279.28012 1980.9659
-447.90585 237.29253 1981.4734
-447.02002 195.30493 1981.9807
-446.13416 153.31735 1982.4882
-408.57449 364.13635 1979.5532
-407.68866 322.14877 1980.0605
-406.80283 280.16119 1980.568
-405.91696 238.17358 1981.0753
-405.03113 196.186 1981.5828
-404.14529 154.19841 1982.0901
-366.58563 365.01743 1979.1553
-365.6998 323.02985 1979.6626
-364.81393 281.04224 1980.17
-363.9281 239.05464 1980.6774
-363.04227 197.06706 1981.1848
-362.15643 155.07947 1981.6921
-324.59677 365.89847 1978.7573
-323.71091 323.91089 1979.2646
-322.82507 281.92331 1979.772
-321.93924 239.93571 1980.2794
-321.05338 197.94812 1980.7867
-320.16754 155.96053 1981.2942
-282.60788 366.77954 1978.3593
-281.72205 324.79196 1978.8667
-280.83621 282.80435 1979.374
-279.95035 240.81677 1979.8815
-279.06451 198.82918 1980.3888
-278.17868 156.84158 1980.8962
-240.61902 367.66061 1977.9613
-239.73317 325.673 1978.4686
-238.84734 283.68542 1978.9761
-237.96149 241.69783 1979.4834
-237.07565 199.71024 1979.9908
-236.1898 157.72264 1980.4982
-198.63014 368.54166 1977.5634
-197.74429 326.55408 1978.0707
-196.85846 284.56647 1978.5781
-195.97261 242.57889 1979.0854
-195.08678 200.59129 1979.5929
-194.20093 158.6037 1980.1002
-156.64127 369.42273 1977.1654
-155.75543 327.43512 1977.6727
-154.86958 285.44754 1978.1801
-153.98375 243.45995 1978.6875
-153.0979 201.47235 1979.1948
-152.21207 159.48476 1979.7023
