# .PCD v0.7 - Point Cloud Data file format
VERSION 0.7
FIELDS x y z
SIZE 4 4 4
TYPE F F F
COUNT 1 1 1
WIDTH 360
HEIGHT 1
VIEWPOINT 0 0 0 1 0 0 0
POINTS 360
DATA ascii
284.67932 -478.33115 12990.394
374.64777 -480.63248 12991.011
464.61624 -482.93381 12991.628
554.58472 -485.23514 12992.245
644.55316 -487.53647 12992.862
286.92386 -388.64883 12997.608
376.8923 -390.95016 12998.225
466.86075 -393.2515 12998.842
556.82922 -395.55283 12999.459
646.79767 -397.85416 13000.076
289.16837 -298.96652 13004.822
379.13681 -301.26785 13005.439
469.10529 -303.56918 13006.057
559.07373 -305.87051 13006.674
649.04218 -308.17184 13007.291
291.4129 -209.28421 13012.036
381.38135 -211.58554 13012.653
471.34979 -213.88687 13013.271
561.31824 -216.1882 13013.888
651.28668 -218.48953 13014.505
293.65741 -119.6019 13019.251
383.62585 -121.90322 13019.868
473.59433 -124.20455 13020.485
563.56281 -126.50588 13021.103
653.53125 -128.80722 13021.72
295.90195 -29.919582 13026.465
385.87039 -32.220913 13027.082
475.83884 -34.522243 13027.699
565.80731 -36.82357 13028.316
655.77576 -39.124901 13028.934
298.14645 59.76273 13033.679
388.1149 57.461399 13034.296
478.08337 55.160069 13034.913
568.05182 52.858742 13035.53
658.02026 50.557411 13036.147
300.39099 149.44504 13040.894
390.35944 147.14371 13041.511
480.32788 144.84238 13042.128
570.29633 142.54105 13042.745
660.26483 140.23972 13043.362
258.97281 -224.38103 13016.054
348.87497 -228.56371 13015.728
438.77713 -232.74638 13015.401
528.67926 -236.92908 13015.074
618.58142 -241.11176 13014.748
263.16821 -134.7422 13022.93
353.07037 -138.92488 13022.604
442.97253 -143.10756 13022.277
532.87469 -147.29024 13021.95
622.77686 -151.47292 13021.624
267.36362 -45.103367 13029.806
357.26578 -49.286049 13029.479
447.16794 -53.468727 13029.152
537.07007 -57.651409 13028.826
626.97223 -61.834087 13028.5
271.55902 44.535461 13036.682
361.46118 40.352783 13036.355
451.36334 36.170105 13036.028
541.2655 31.987425 13035.702
631.16766 27.804745 13035.376
275.75443 134.1743 13043.558
365.65659 129.99161 13043.231
455.55875 125.80894 13042.904
545.46088 121.62626 13042.578
635.36304 117.44357 13042.252
279.9498 223.81313 13050.434
369.85199 219.63045 13050.107
459.75415 215.44777 13049.78
549.65631 211.26509 13049.454
639.55847 207.08241 13049.128
284.1452 313.45197 13057.31
374.04736 309.26929 13056.983
463.94952 305.08661 13056.656
553.85168 300.90393 13056.33
643.75385 296.72125 13056.004
288.34061 403.09079 13064.186
378.24277 398.90811 13063.859
468.14493 394.72543 13063.532
558.04712 390.54276 13063.206
647.94928 386.36008 13062.88
220.17903 -280.70007 13003.193
305.79929 -253.23 13007.01
391.41953 -225.75993 13010.827
477.03976 -198.28986 13014.645
562.65997 -170.81978 13018.461
192.50638 -195.25883 13009.025
278.12662 -167.78876 13012.843
363.74686 -140.3187 13016.66
449.3671 -112.84862 13020.477
534.98737 -85.37854 13024.294
164.83371 -109.8176 13014.858
250.45395 -82.347527 13018.676
336.07419 -54.877453 13022.492
421.69443 -27.407379 13026.31
507.31467 0.062695853 13030.126
137.16106 -24.376364 13020.69
222.7813 3.0937097 13024.508
308.40152 30.563784 13028.325
394.02176 58.033859 13032.142
479.642 85.503929 13035.959
109.48839 61.064873 13026.523
195.10863 88.53495 13030.341
280.72888 116.00502 13034.157
366.34912 143.4751 13037.975
451.96936 170.94518 13041.791
81.815727 146.5061 13032.356
167.43596 173.97618 13036.173
253.0562 201.44626 13039.99
338.67645 228.91634 13043.807
424.29669 256.38641 13047.624
54.143063 231.94734 13038.188
139.76331 259.41742 13042.006
225.38354 286.88748 13045.822
311.00378 314.35757 13049.64
396.62402 341.82764 13053.457
26.4704 317.38858 13044.021
112.09064 344.85867 13047.838
197.71088 372.32874 13051.655
283.33112 399.7988 13055.472
368.95135 427.26889 13059.289
50.055267 -262.76205 13020.065
139.99747 -259.60904 13020.744
229.93965 -256.45599 13021.423
319.88184 -253.30295 13022.102
409.82404 -250.14992 13022.78
46.867264 -172.97923 13025.439
136.80945 -169.82619 13026.118
226.75165 -166.67316 13026.797
316.69385 -163.52011 13027.476
406.63602 -160.36708 13028.154
43.67926 -83.196396 13030.813
133.62144 -80.043358 13031.492
223.56364 -76.89032 13032.171
313.50583 -73.737282 13032.85
403.44803 -70.584244 13033.528
40.491257 6.5864382 13036.188
130.43344 9.7394753 13036.866
220.37564 12.892512 13037.545
310.31784 16.045549 13038.224
400.26001 19.198586 13038.902
37.303253 96.36927 13041.562
127.24545 99.522308 13042.24
217.18764 102.67535 13042.919
307.12982 105.82838 13043.598
397.07202 108.98142 13044.276
34.115246 186.1521 13046.936
124.05744 189.30515 13047.614
213.99963 192.45818 13048.293
303.94183 195.61122 13048.972
393.884 198.76425 13049.65
30.927242 275.93494 13052.309
120.86943 279.08798 13052.988
210.81163 282.24103 13053.667
300.75381 285.39404 13054.346
390.69601 288.54709 13055.024
27.739239 365.71777 13057.683
117.68143 368.87082 13058.361
207.62363 372.02383 13059.04
297.5658 375.17688 13059.719
387.508 378.32993 13060.398
24.491116 -362.64572 13009.939
114.42497 -366.00497 13010.725
204.35883 -369.36426 13011.51
294.29269 -372.72354 13012.295
384.22656 -376.08282 13013.08
27.799221 -272.85886 13015.171
117.73308 -276.21811 13015.956
207.66693 -279.57739 13016.741
297.6008 -282.93668 13017.526
387.53464 -286.29593 13018.312
31.107327 -183.07198 13020.403
121.04118 -186.43124 13021.188
210.97504 -189.79053 13021.974
300.90891 -193.1498 13022.759
390.84274 -196.50908 13023.544
34.415432 -93.28511 13025.636
124.34929 -96.644386 13026.421
214.28314 -100.00365 13027.206
304.21701 -103.36293 13027.991
394.15085 -106.72221 13028.776
37.723537 -3.4982398 13030.867
127.65739 -6.8575149 13031.652
217.59125 -10.216789 13032.438
307.52512 -13.576064 13033.223
397.45895 -16.935339 13034.009
41.031643 86.288628 13036.1
130.9655 82.929352 13036.885
220.89935 79.570076 13037.67
310.83322 76.2108 13038.455
400.76706 72.851532 13039.24
44.339745 176.0755 13041.332
134.27361 172.71622 13042.117
224.20746 169.35695 13042.902
314.14133 165.99767 13043.688
404.07516 162.6384 13044.473
47.64785 265.86237 13046.563
137.58171 262.50308 13047.349
227.51556 259.1438 13048.134
317.44943 255.78455 13048.919
407.38327 252.42526 13049.705
-93.432983 -352.78525 13015.971
-3.4393516 -353.48505 13016.78
86.554283 -354.18488 13017.59
176.54791 -354.8847 13018.4
266.54156 -355.5845 13019.21
-92.770966 -262.88208 13020.092
-2.7773323 -263.58191 13020.901
87.216301 -264.28174 13021.712
177.20993 -264.98154 13022.521
267.20358 -265.68137 13023.332
-92.108948 -172.97894 13024.213
-2.1153133 -173.67876 13025.023
87.878319 -174.37859 13025.833
177.87195 -175.0784 13026.643
267.8656 -175.77821 13027.453
-91.44693 -83.075798 13028.334
-1.453294 -83.775612 13029.145
88.540337 -84.475433 13029.954
178.53398 -85.175247 13030.765
268.52762 -85.875061 13031.574
-90.784912 6.8273511 13032.456
-0.79127491 6.1275349 13033.266
89.202362 5.4277182 13034.076
179.196 4.7279019 13034.886
269.18964 4.0280857 13035.695
-90.122887 96.730499 13036.577
-0.12925574 96.030685 13037.387
89.86438 95.330864 13038.197
179.85802 94.63105 13039.007
269.85165 93.931236 13039.817
-89.460869 186.63365 13040.698
0.53276342 185.93384 13041.509
90.526398 185.23401 13042.318
180.52003 184.53419 13043.128
270.51367 183.83438 13043.938
-88.798851 276.5368 13044.82
1.1947826 275.83698 13045.63
91.188416 275.13718 13046.439
181.18205 274.43735 13047.25
271.17569 273.73752 13048.06
45.324577 -191.9696 13025.843
135.22722 -187.8499 13026.579
225.12987 -183.73021 13027.316
315.0325 -179.6105 13028.053
404.93515 -175.49081 13028.79
41.168114 -102.22671 13031.222
131.07076 -98.10701 13031.959
220.9734 -93.987312 13032.695
310.87604 -89.867615 13033.433
400.77869 -85.747917 13034.169
37.01165 -12.483813 13036.602
126.91429 -8.3641157 13037.338
216.81694 -4.2444177 13038.075
306.71957 -0.12472019 13038.812
396.62222 3.9949775 13039.549
32.855186 77.259079 13041.98
122.75783 81.378777 13042.718
212.66048 85.498474 13043.454
302.56311 89.618172 13044.191
392.46576 93.737869 13044.928
28.698725 167.00198 13047.359
118.60136 171.12167 13048.097
208.50401 175.24138 13048.833
298.40665 179.36107 13049.57
388.3093 183.48077 13050.307
24.542261 256.74487 13052.739
114.44491 260.86456 13053.476
204.34755 264.98425 13054.213
294.25018 269.10397 13054.949
384.15283 273.22366 13055.687
20.385798 346.48776 13058.118
110.28844 350.60745 13058.855
200.19109 354.72717 13059.592
290.09372 358.84686 13060.329
379.99637 362.96655 13061.065
16.229334 436.23065 13063.498
106.13198 440.35037 13064.234
196.03462 444.47006 13064.972
285.93726 448.58975 13065.708
375.8399 452.70944 13066.445
89.88475 -126.7038 13031.132
177.53554 -146.97026 13028.561
265.18634 -167.23672 13025.989
352.83713 -187.50317 13023.419
440.48792 -207.76964 13020.848
110.27982 -39.24242 13037.01
197.9306 -59.508881 13034.438
285.58139 -79.775337 13031.867
373.23218 -100.04179 13029.297
460.88297 -120.30825 13026.726
130.67488 48.21896 13042.887
218.32567 27.952501 13040.316
305.97647 7.6860423 13037.745
393.62726 -12.580416 13035.174
481.27805 -32.846874 13032.604
151.06996 135.68034 13048.765
238.72075 115.41388 13046.194
326.37152 95.147423 13043.623
414.02231 74.880966 13041.052
501.67313 54.614506 13038.481
171.46503 223.14172 13054.643
259.11581 202.87526 13052.071
346.7666 182.60881 13049.501
434.41739 162.34235 13046.93
522.06818 142.07588 13044.358
191.86009 310.60309 13060.521
279.51089 290.33664 13057.949
367.16168 270.07019 13055.379
454.81247 249.80373 13052.808
542.46326 229.53726 13050.236
212.25516 398.06448 13066.398
299.90594 377.79803 13063.827
387.55673 357.53156 13061.256
475.20752 337.26511 13058.686
562.85834 316.99866 13056.114
232.65022 485.52585 13072.276
320.30103 465.2594 13069.705
407.95181 444.99295 13067.134
495.6026 424.72647 13064.563
583.25336 404.46002 13061.992
157.53252 -363.24713 12999.672
240.8015 -329.4097 13004.287
324.0705 -295.57227 13008.903
407.33948 -261.7348 13013.519
490.60846 -227.89737 13018.135
123.47306 -280.07382 13004.379
206.74205 -246.23639 13008.994
290.01102 -212.39894 13013.609
373.28 -178.56149 13018.226
456.54898 -144.72406 13022.841
89.413605 -196.90051 13009.085
172.68259 -163.06306 13013.701
255.95157 -129.22562 13018.316
339.22055 -95.388176 13022.932
422.48953 -61.550735 13027.548
55.354141 -113.72719 13013.792
138.62312 -79.889748 13018.407
221.89211 -46.052303 13023.023
305.16107 -12.21486 13027.639
388.43005 21.622581 13032.254
21.294682 -30.553869 13018.498
104.56366 3.2835739 13023.114
187.83264 37.121017 13027.729
271.10162 70.958458 13032.346
354.37061 104.7959 13036.961
-12.764777 52.61945 13023.205
70.504204 86.456894 13027.82
153.77318 120.29433 13032.437
237.04216 154.13177 13037.052
320.31116 187.96922 13041.668
-46.824238 135.79277 13027.911
36.444744 169.63022 13032.527
119.71372 203.46765 13037.143
202.98271 237.3051 13041.759
286.25168 271.14255 13046.374
-80.883698 218.96609 13032.618
2.3852837 252.80353 13037.233
85.654266 286.64096 13041.85
168.92325 320.47842 13046.465
252.19223 354.31586 13051.081
