# .PCD v0.7 - Point Cloud Data file format
VERSION 0.7
FIELDS x y z
SIZE 4 4 4
TYPE F F F
COUNT 1 1 1
WIDTH 379
HEIGHT 1
VIEWPOINT 0 0 0 1 0 0 0
POINTS 379
DATA ascii
0 0 0
378.95685 413.93082 1942.7025
378.00455 371.94653 1943.3451
377.05225 329.96222 1943.9877
376.09995 287.97794 1944.6302
375.14764 245.99367 1945.2729
374.19534 204.00938 1945.9155
420.94601 412.97784 1942.6675
419.99371 370.99356 1943.3101
419.04141 329.00928 1943.9526
418.08911 287.02499 1944.5952
417.13681 245.04071 1945.2378
416.18451 203.05643 1945.8804
462.93521 412.0249 1942.6324
461.98291 370.04062 1943.275
461.03061 328.05634 1943.9176
460.07831 286.07205 1944.5602
459.12601 244.08777 1945.2028
458.17371 202.10349 1945.8453
504.92438 411.07196 1942.5974
503.97208 369.08768 1943.24
503.01978 327.10339 1943.8826
502.06747 285.11911 1944.5251
501.11517 243.13483 1945.1677
500.16287 201.15054 1945.8103
546.91351 410.11902 1942.5624
545.96124 368.13474 1943.205
545.00897 326.15045 1943.8475
544.05664 284.16617 1944.4901
543.10437 242.18187 1945.1327
542.15204 200.19759 1945.7753
588.90271 409.16608 1942.5272
587.95044 367.18179 1943.1699
586.99811 325.19751 1943.8125
586.04584 283.21323 1944.4551
585.09351 241.22893 1945.0977
584.14124 199.24464 1945.7402
630.89191 408.21313 1942.4922
629.93958 366.22882 1943.1348
628.9873 324.24454 1943.7773
628.03497 282.26025 1944.42
627.0827 240.27599 1945.0626
626.13037 198.29169 1945.7052
672.88104 407.26016 1942.4572
671.92877 365.27588 1943.0997
670.97644 323.2916 1943.7423
670.02417 281.30731 1944.3849
669.07184 239.32303 1945.0275
668.11957 197.33875 1945.6702
714.87024 406.30722 1942.4221
713.91791 364.32294 1943.0647
712.96564 322.33865 1943.7073
712.01331 280.35437 1944.3499
711.06104 238.37009 1944.9924
710.10876 196.3858 1945.635
382.04614 -248.39731 1960.9109
382.81033 -290.38593 1961.5208
383.57452 -332.37454 1962.1305
384.33875 -374.36316 1962.7402
385.10294 -416.35178 1963.3501
385.86713 -458.34039 1963.9598
424.03845 -247.63678 1960.6527
424.80264 -289.6254 1961.2625
425.56686 -331.61401 1961.8723
426.33105 -373.60263 1962.4821
427.09525 -415.59128 1963.0919
427.85947 -457.5799 1963.7017
466.03076 -246.87627 1960.3945
466.79498 -288.8649 1961.0043
467.55917 -330.85352 1961.6141
468.32336 -372.84213 1962.2239
469.08759 -414.83075 1962.8336
469.85178 -456.81937 1963.4435
508.0231 -246.11575 1960.1364
508.78729 -288.10437 1960.7461
509.55148 -330.09299 1961.356
510.3157 -372.0816 1961.9657
511.0799 -414.07022 1962.5754
511.84409 -456.05884 1963.1853
550.01544 -245.35522 1959.8782
550.7796 -287.34384 1960.4879
551.54382 -329.33246 1961.0978
552.30804 -371.32108 1961.7075
553.0722 -413.30969 1962.3173
553.83643 -455.29834 1962.9271
592.00775 -244.59471 1959.62
592.77191 -286.58334 1960.2297
593.53613 -328.57196 1960.8395
594.30035 -370.56058 1961.4493
595.06451 -412.54919 1962.0591
595.82874 -454.53781 1962.6689
634.00006 -243.8342 1959.3618
634.76428 -285.82281 1959.9716
635.52844 -327.81143 1960.5813
636.29266 -369.80005 1961.1912
637.05688 -411.78867 1961.8009
637.82104 -453.77728 1962.4106
675.99237 -243.07367 1959.1035
676.75659 -285.06229 1959.7134
677.52075 -327.0509 1960.3231
678.28497 -369.03952 1960.933
679.04919 -411.02814 1961.5427
679.81335 -453.01675 1962.1525
717.98468 -242.31316 1958.8453
718.7489 -284.30176 1959.4552
719.51312 -326.29041 1960.0649
720.27728 -368.27902 1960.6748
721.0415 -410.26764 1961.2845
721.80573 -452.25626 1961.8943
-163.54192 79.852661 1955.896
-162.78326 37.868286 1956.7542
-162.02463 -4.1160917 1957.6123
-161.26598 -46.100468 1958.4706
-160.50734 -88.084846 1959.3287
-159.74869 -130.06923 1960.1869
-121.55148 80.601326 1955.4025
-120.79284 38.616951 1956.2606
-120.03419 -3.3674273 1957.1188
-119.27555 -45.351807 1957.9771
-118.51691 -87.336182 1958.8352
-117.75827 -129.32056 1959.6934
-79.561058 81.349991 1954.9089
-78.802414 39.365616 1955.7671
-78.04377 -2.6187627 1956.6254
-77.285126 -44.603142 1957.4835
-76.526482 -86.587517 1958.3417
-75.767838 -128.5719 1959.2
-37.570629 82.098656 1954.4154
-36.811985 40.114281 1955.2736
-36.053341 -1.8700981 1956.1318
-35.294701 -43.854477 1956.99
-34.536057 -85.838852 1957.8481
-33.777412 -127.82323 1958.7064
4.4197989 82.847321 1953.9219
5.178442 40.862946 1954.7802
5.9370852 -1.1214335 1955.6383
6.6957278 -43.105812 1956.4965
7.454371 -85.090187 1957.3547
8.2130136 -127.07457 1958.2129
46.410225 83.595985 1953.4283
47.168869 41.61161 1954.2866
47.927513 -0.37276894 1955.1448
48.686153 -42.357147 1956.0029
49.444798 -84.341522 1956.8612
50.203442 -126.3259 1957.7194
88.40065 84.34465 1952.9349
89.159294 42.360271 1953.7931
89.917938 0.37589565 1954.6512
90.676582 -41.608482 1955.5095
91.435226 -83.592857 1956.3677
92.193871 -125.57724 1957.2258
130.39108 85.093315 1952.4414
131.14972 43.108936 1953.2996
131.90837 1.1245602 1954.1577
132.66701 -40.859818 1955.016
133.42566 -82.844193 1955.8741
134.1843 -124.82858 1956.7323
172.3815 85.84198 1951.9479
173.14015 43.857601 1952.806
173.89879 1.8732249 1953.6643
174.65744 -40.111153 1954.5225
175.41608 -82.095528 1955.3806
176.17473 -124.07991 1956.2389
-645.16595 -286.75922 1965.2568
-645.05273 -328.74649 1966.2841
-644.93951 -370.73376 1967.3113
-644.82629 -412.72107 1968.3385
-644.71307 -454.70834 1969.3657
-644.59985 -496.69562 1970.3929
-603.16705 -286.65292 1964.972
-603.05383 -328.6402 1965.9993
-602.94061 -370.62747 1967.0265
-602.82739 -412.61478 1968.0537
-602.71417 -454.60205 1969.0809
-602.60095 -496.58932 1970.1082
-561.16815 -286.54663 1964.6873
-561.05493 -328.53391 1965.7145
-560.94171 -370.52121 1966.7417
-560.82849 -412.50848 1967.7689
-560.71527 -454.49576 1968.7961
-560.60205 -496.48306 1969.8234
-519.16925 -286.44034 1964.4025
-519.05603 -328.42764 1965.4297
-518.94281 -370.41492 1966.4569
-518.82959 -412.40219 1967.4841
-518.71637 -454.3895 1968.5114
-518.60315 -496.37677 1969.5386
-477.17032 -286.33408 1964.1177
-477.0571 -328.32135 1965.1449
-476.94388 -370.30862 1966.1721
-476.83066 -412.29593 1967.1993
-476.71744 -454.2832 1968.2266
-476.60422 -496.27048 1969.2538
-435.17142 -286.22778 1963.8329
-435.0582 -328.21506 1964.8601
-434.94498 -370.20236 1965.8873
-434.83176 -412.18964 1966.9146
-434.71854 -454.17691 1967.9418
-434.60532 -496.16422 1968.969
-393.17252 -286.12149 1963.5481
-393.0593 -328.1088 1964.5753
-392.94608 -370.09607 1965.6025
-392.83286 -412.08334 1966.6298
-392.71964 -454.07062 1967.657
-392.60641 -496.05792 1968.6841
-351.17361 -286.0152 1963.2633
-351.06039 -328.0025 1964.2905
-350.94717 -369.98978 1965.3177
-350.83395 -411.97705 1966.345
-350.72073 -453.96436 1967.3721
-350.60751 -495.95163 1968.3993
-309.17471 -285.90894 1962.9785
-309.06149 -327.89621 1964.0057
-308.94827 -369.88348 1965.033
-308.83505 -411.87079 1966.0601
-308.72183 -453.85806 1967.0873
-308.60861 -495.84534 1968.1145
-643.8313 432.13763 1949.2874
-643.11224 390.15576 1950.2905
-642.39319 348.17392 1951.2936
-641.67413 306.19205 1952.2968
-640.95502 264.21021 1953.2999
-640.23596 222.22833 1954.3031
-601.83752 432.85852 1949.3556
-601.11847 390.87668 1950.3588
-600.39941 348.89481 1951.3618
-599.68036 306.91293 1952.365
-598.9613 264.93109 1953.3682
-598.24225 222.94922 1954.3713
-559.84375 433.57944 1949.4238
-559.12469 391.59756 1950.4269
-558.40564 349.61569 1951.4301
-557.68658 307.63385 1952.4332
-556.96753 265.65198 1953.4364
-556.24847 223.67012 1954.4395
-517.85004 434.30032 1949.4919
-517.13098 392.31845 1950.4951
-516.41187 350.33661 1951.4983
-515.69281 308.35474 1952.5015
-514.97375 266.37289 1953.5046
-514.2547 224.39102 1954.5077
-475.85626 435.02121 1949.5602
-475.13721 393.03937 1950.5634
-474.41812 351.0575 1951.5665
-473.69907 309.07562 1952.5697
-472.98001 267.09378 1953.5728
-472.26096 225.11191 1954.5759
-433.86252 435.74213 1949.6284
-433.14343 393.76025 1950.6316
-432.42438 351.77838 1951.6348
-431.70532 309.79654 1952.6379
-430.98627 267.81467 1953.641
-430.26718 225.83281 1954.6442
-391.86874 436.46301 1949.6967
-391.14969 394.48114 1950.6998
-390.43063 352.4993 1951.703
-389.71155 310.51743 1952.7061
-388.99249 268.53558 1953.7092
-388.27344 226.55371 1954.7124
-349.875 437.1839 1949.7649
-349.15591 395.20206 1950.7681
-348.43686 353.22018 1951.7712
-347.7178 311.23831 1952.7743
-346.99875 269.25647 1953.7775
-346.27966 227.2746 1954.7806
-307.88123 437.90482 1949.8331
-307.16217 395.92294 1950.8363
-306.44312 353.94107 1951.8394
-305.72403 311.95923 1952.8425
-305.00497 269.97736 1953.8457
-304.28592 227.9955 1954.8489
-320.36554 229.55406 1951.5679
-301.91318 191.8322 1952.3243
-283.46078 154.11035 1953.0808
-265.00842 116.3885 1953.8374
-246.55608 78.666656 1954.5939
-228.1037 40.944805 1955.3503
-282.63651 248.00644 1951.3939
-264.18414 210.28459 1952.1505
-245.73178 172.56274 1952.907
-227.2794 134.8409 1953.6635
-208.82704 97.119041 1954.42
-190.37468 59.397194 1955.1765
-244.90749 266.45883 1951.2201
-226.45512 228.73698 1951.9766
-208.00275 191.01512 1952.733
-189.55038 153.29327 1953.4896
-171.09802 115.57143 1954.2461
-152.64566 77.849579 1955.0026
-207.17845 284.91122 1951.0461
-188.72609 247.18936 1951.8027
-170.27373 209.46751 1952.5592
-151.82137 171.74567 1953.3157
-133.369 134.02382 1954.0723
-114.91663 96.301964 1954.8287
-169.44943 303.36359 1950.8723
-150.99707 265.64175 1951.6288
-132.54471 227.91991 1952.3853
-114.09234 190.19804 1953.1418
-95.639977 152.4762 1953.8983
-77.187614 114.75435 1954.6548
-131.72041 321.81598 1950.6984
-113.26804 284.09415 1951.455
-94.815681 246.37228 1952.2114
-76.363319 208.65044 1952.9679
-57.910954 170.92859 1953.7245
-39.458588 133.20674 1954.481
-93.991386 340.26837 1950.5245
-75.539024 302.54651 1951.281
-57.086658 264.82468 1952.0375
-38.634293 227.10283 1952.7941
-20.181929 189.38097 1953.5505
-1.729565 151.65912 1954.307
-56.262363 358.72076 1950.3506
-37.810001 320.9989 1951.1072
-19.357635 283.27707 1951.8636
-0.90527064 245.55521 1952.6201
17.547094 207.83336 1953.3767
35.999458 170.11151 1954.1332
-18.53334 377.17316 1950.1768
-0.080976196 339.45129 1950.9332
18.371387 301.72943 1951.6897
36.823753 264.0076 1952.4463
55.276115 226.28575 1953.2028
73.728485 188.5639 1953.9592
-171.96272 -116.06224 1961.0074
-188.33473 -154.73167 1961.8029
-204.70673 -193.40111 1962.5983
-221.07872 -232.07054 1963.3937
-237.45071 -270.73996 1964.1892
-253.82271 -309.40939 1964.9846
-133.28653 -132.43758 1960.9846
-149.65852 -171.10701 1961.78
-166.03053 -209.77644 1962.5754
-182.40253 -248.44586 1963.3708
-198.77452 -287.1153 1964.1664
-215.14651 -325.78473 1964.9618
-94.610336 -148.8129 1960.9618
-110.98234 -187.48233 1961.7572
-127.35433 -226.15176 1962.5526
-143.72633 -264.8212 1963.3481
-160.09833 -303.49063 1964.1436
-176.47032 -342.16006 1964.939
-55.934143 -165.18823 1960.939
-72.306137 -203.85767 1961.7344
-88.678139 -242.5271 1962.5298
-105.05013 -281.19653 1963.3253
-121.42213 -319.86597 1964.1207
-137.79413 -358.5354 1964.9161
-17.257948 -181.56357 1960.9161
-33.629944 -220.233 1961.7115
-50.001942 -258.90244 1962.507
-66.37394 -297.57187 1963.3025
-82.745934 -336.2413 1964.0979
-99.117935 -374.91074 1964.8933
21.418247 -197.93889 1960.8933
5.0462494 -236.60832 1961.6887
-11.325748 -275.27777 1962.4841
-27.697744 -313.94717 1963.2797
-44.069744 -352.61661 1964.0751
-60.441738 -391.28604 1964.8705
60.09444 -214.31422 1960.8705
43.722443 -252.98366 1961.6659
27.350447 -291.65308 1962.4613
10.97845 -330.32251 1963.2568
-5.3935475 -368.99194 1964.0522
-21.765545 -407.66138 1964.8477
98.770638 -230.68956 1960.8477
82.398636 -269.35898 1961.6431
66.026642 -308.02841 1962.4385
49.654644 -346.69785 1963.234
33.282646 -385.36728 1964.0294
16.91065 -424.03671 1964.8248
137.44684 -247.06488 1960.8248
121.07484 -285.73431 1961.6202
104.70284 -324.40375 1962.4156
88.330841 -363.07318 1963.2112
71.958839 -401.74261 1964.0066
55.586845 -440.41205 1964.802
