# .PCD v0.7 - Point Cloud Data file format
VERSION 0.7
FIELDS x y z
SIZE 4 4 4
TYPE F F F
COUNT 1 1 1
WIDTH 161
HEIGHT 1
VIEWPOINT 0 0 0 1 0 0 0
POINTS 161
DATA ascii
0 0 0
-560.99896 -1.0714811 1963.7511
-564.0473 -60.990707 1963.1235
-567.09564 -120.90993 1962.4961
-570.14398 -180.82916 1961.8685
-573.19232 -240.7484 1961.2411
-501.07678 -4.1176019 1963.5245
-504.12512 -64.036827 1962.897
-507.17346 -123.95605 1962.2695
-510.2218 -183.87529 1961.6421
-513.27014 -243.79451 1961.0145
-441.15457 -7.1637225 1963.298
-444.20291 -67.082947 1962.6705
-447.25125 -127.00218 1962.043
-450.29959 -186.9214 1961.4155
-453.34796 -246.84064 1960.7881
-381.23239 -10.209844 1963.0714
-384.28073 -70.129074 1962.444
-387.32907 -130.04829 1961.8165
-390.37741 -189.96753 1961.189
-393.42575 -249.88675 1960.5615
-321.31018 -13.255964 1962.845
-324.35852 -73.175194 1962.2174
-327.40686 -133.09442 1961.59
-330.4552 -193.01364 1960.9625
-333.50354 -252.93288 1960.335
-261.38797 -16.302086 1962.6184
-264.43634 -76.221313 1961.991
-267.48468 -136.14053 1961.3634
-270.53302 -196.05977 1960.736
-273.58136 -255.979 1960.1085
-201.46579 -19.348206 1962.3918
-204.51413 -79.267433 1961.7644
-207.56247 -139.18666 1961.137
-210.61081 -199.1059 1960.5094
-213.65915 -259.02512 1959.882
-141.54359 -22.394327 1962.1654
-144.59193 -82.313553 1961.5378
-147.64027 -142.23279 1960.9104
-150.68861 -202.15201 1960.283
-153.73695 -262.07123 1959.6554
-488.21155 8.1318045 1964.1102
-487.37805 -51.859123 1963.4827
-486.54456 -111.85005 1962.8552
-485.71106 -171.84099 1962.2277
-484.87756 -231.83191 1961.6001
-428.21808 8.9683266 1963.8248
-427.38458 -51.022602 1963.1973
-426.55109 -111.01353 1962.5697
-425.71756 -171.00446 1961.9421
-424.88406 -230.99539 1961.3147
-368.22458 9.8048487 1963.5394
-367.39108 -50.186081 1962.9119
-366.55759 -110.17701 1962.2843
-365.72409 -170.16794 1961.6567
-364.89059 -230.15886 1961.0292
-308.23111 10.641371 1963.2539
-307.39758 -49.349556 1962.6265
-306.56409 -109.34048 1961.9989
-305.73059 -169.33142 1961.3713
-304.89709 -229.32234 1960.7438
-248.23761 11.477893 1962.9685
-247.4041 -48.513035 1962.3409
-246.5706 -108.50396 1961.7134
-245.73711 -168.49489 1961.0859
-244.90359 -228.48582 1960.4584
-188.24411 12.314416 1962.6831
-187.41061 -47.676514 1962.0555
-186.57712 -107.66744 1961.428
-185.74361 -167.65837 1960.8004
-184.91011 -227.64929 1960.1729
-128.25063 13.150938 1962.3976
-127.41713 -46.839989 1961.7701
-126.58363 -106.83092 1961.1426
-125.75012 -166.82185 1960.515
-124.91663 -226.81277 1959.8875
-68.257141 13.98746 1962.1122
-67.423637 -46.003468 1961.4846
-66.590134 -105.99439 1960.8572
-65.756638 -165.98532 1960.2296
-64.923134 -225.97626 1959.6021
-94.45192 -4.9508696 1964.4745
-96.099449 -64.911896 1963.074
-97.746971 -124.87292 1961.6736
-99.394501 -184.83394 1960.2731
-101.04202 -244.79497 1958.8726
-34.476353 -6.5870247 1963.9706
-36.123878 -66.54805 1962.5701
-37.771404 -126.50907 1961.1696
-39.41893 -186.47009 1959.7692
-41.066456 -246.43112 1958.3687
25.499218 -8.2231798 1963.4667
23.851692 -68.184204 1962.0662
22.204166 -128.14522 1960.6656
20.556641 -188.10625 1959.2651
18.909115 -248.06728 1957.8646
85.474785 -9.8593349 1962.9628
83.827263 -69.820358 1961.5623
82.179733 -129.78139 1960.1617
80.532211 -189.7424 1958.7612
78.884689 -249.70343 1957.3607
145.45036 -11.49549 1962.4587
143.80283 -71.456512 1961.0583
142.1553 -131.41754 1959.6578
140.50778 -191.37856 1958.2573
138.86026 -251.33958 1956.8568
205.42593 -13.131645 1961.9548
203.7784 -73.092667 1960.5543
202.13087 -133.0537 1959.1538
200.48335 -193.01471 1957.7534
198.83583 -252.97574 1956.3529
265.40149 -14.7678 1961.4509
263.75397 -74.728821 1960.0504
262.10645 -134.68985 1958.6499
260.45892 -194.65086 1957.2494
258.8114 -254.61189 1955.8489
325.37708 -16.403955 1960.947
323.72955 -76.364975 1959.5465
322.08203 -136.326 1958.146
320.43448 -196.28702 1956.7455
318.78696 -256.24805 1955.345
248.90842 -28.873793 1963.7155
250.37645 -88.836433 1962.1902
251.84448 -148.79907 1960.6649
253.31252 -208.76172 1959.1396
254.78055 -268.72437 1957.6145
308.88788 -27.392155 1963.1967
310.3559 -87.354797 1961.6714
311.82394 -147.31744 1960.1461
313.29196 -207.28008 1958.6208
314.76001 -267.24274 1957.0957
368.86734 -25.910515 1962.6779
370.33536 -85.873154 1961.1526
371.80341 -145.8358 1959.6273
373.27142 -205.79845 1958.1022
374.73947 -265.76108 1956.5769
428.8468 -24.428875 1962.1591
430.31482 -84.391518 1960.6338
431.78287 -144.35416 1959.1085
433.25089 -204.3168 1957.5834
434.71893 -264.27945 1956.0581
488.82626 -22.947235 1961.6403
490.29428 -82.909882 1960.115
491.76233 -142.87253 1958.5898
493.23035 -202.83516 1957.0646
494.69839 -262.79782 1955.5393
548.80573 -21.465595 1961.1215
550.27374 -81.428238 1959.5962
551.74176 -141.39088 1958.071
553.20984 -201.35353 1956.5458
554.67786 -261.31616 1955.0205
608.78516 -19.983955 1960.6027
610.25323 -79.946602 1959.0775
611.72125 -139.90924 1957.5522
613.18927 -199.87189 1956.027
614.65729 -259.83453 1954.5017
668.76465 -18.502317 1960.0839
670.23267 -78.464958 1958.5587
671.70068 -138.4276 1957.0334
673.16876 -198.39024 1955.5082
674.63678 -258.35287 1953.9829
